<svg height="71.177mm" viewBox="324.94 409.328 469.138 369.897" width="90.273mm" xmlns="http://www.w3.org/2000/svg"><g fill="none" stroke-linecap="round" stroke-linejoin="round"><path d="m382.111 486.508q-1.18.766-.82.556-.899.532-.766.434.527-.024-1.125.164-.225-1.145-.133-1.125-.238-.926 1.034-5.873 1.272-4.946 1.884-8.322.611-3.375 3.582-5.217.98-.503 2.297 6.171 1.318 6.675 4.141 16.727-.032 0-.282-.202-.25-.202-.515-.536" stroke="#50514f" stroke-width="1.381"/><path d="m385.564 481.726q.13.054.003 0-.126-.054-1.253-.527-1.26 0 4.178.1 5.439.099 6.103.299" stroke="#50514f" stroke-width="1.32"/><path d="m367.58 500.441q0-.269 0-1.066-.187-.057-.199-.193-.012-.136-2.107 3.123-2.094 3.26-3.962 5.775-1.867 2.515-3.3 4.059-1.433 1.544-4.705 5.31-3.272 3.766-5.962 7.736-.612-.613 6.423 5.71 7.035 6.322 11.386 10.479 4.352 4.157 7.41 7.899-.133-.099-.266-.199" stroke="#50514f" stroke-width="1.352"/><path d="m381.189 563.008q.236 1.338.141.99 0 .199-.039.633-.071.029-.266-.035-.066-1.057-.039-1.026-.27-.648 5.976-18.879.683 1.618.594 1.658.519 1.493 3.711 19.905-1.193-.232-1.066-.226.126.005-.095-.18-.222-.186-.558-.52" stroke="#50514f" stroke-width="1.303"/><path d="m386.033 560.746q-.949-.582-1.86-.855.152.603 5.018-.666 4.865-1.268 5.264-1.467" stroke="#50514f" stroke-width="1.303"/><path d="m401.095 542.84q-.012.439.038-.324.049-.764-.34-1.68-.389-.916-.863-1.097-.474-.18-1.018-.12-.544.061-.96.53-.416.469-.527 1.251-.111.782-.218 2.099-.107 1.316.841 2.638.949 1.322 4.088 1.383 3.139.06 3.475-.11" stroke="#50514f" stroke-width="1.303"/><path d="m413.376 477.742q-.001 0-.937 0-.558-2.251 4.923-5.729 5.482-3.478 11.151-7.462 5.669-3.983 9.211-6.309 3.543-2.325 6.015-4.631 2.473-2.306 2.606-2.47" stroke="#50514f" stroke-width="1.34"/><path d="m415.033 474.098q-.039 0-.203-.141-1.413-.627 5.1 4.104 6.512 4.732 11.715 7.868 5.203 3.136 8.955 6.053 3.753 2.916 3.948 3.151" stroke="#50514f" stroke-width="1.351"/><path d="m459.814 436.41q-.031-.135-.359-.34-.25.998-.644 5.388-.394 4.39 2.628 11.475h.031q.071-.199.141-.398" stroke="#50514f" stroke-width="1.372"/><path d="m459.017 442.973q-.066.401-.133-4.243.779-.466 2.291-.555 1.512-.089 2.381.447.868.537.938 1.16.069.623.092 1.143.024.52.022.932-.002.412-.088.765-.085.352-.271.757-.185.405-.774 1.552-.59 1.147-5.38 3.749.904-1.048.828-.791-.223.169.741-.347.963-.515 2.823-.716 1.86-.201 2.847.789.987.99 1.138 1.569.151.58.228.951.077.372-.056 1.431-.133 1.059-3.481 2.274-3.349 1.215-3.943 1.414" stroke="#50514f" stroke-width="1.273"/><path d="m458.095 492.203q-.841 1.281 3.016 16.395h.031q0-.165 0-.329" stroke="#50514f" stroke-width="1.229"/><path d="m458.689 496.129q-.219-.209-.336-4.582 1.607-.563 1.328-.399 1.387-.026 2.259-.195.872-.169 1.877-.011 1.005.158 1.504.493.499.336.931 1.902.433 1.567-1.135 3.622-1.568 2.055-5.959 3.81.694-1.198 3.238-1.547 2.543-.349 4.151-.076 1.607.272 2.355 2.058.748 1.787-.686 3.31-1.433 1.524-3.026 2.138-1.592.615-2.878.325-1.287-.289-2.023-.765-.735-.476-1.172-1.415-.436-.94-.569-1.239" stroke="#50514f" stroke-width="1.237"/><path d="m477.33 488.43q.039-.397.017-.432-.021-.035-.032-.4-.01-.366-.53-.686-.521-.319-.851.017-.331.337-.969 2.379-.637 2.041-.766 3.125-.13 1.084.274 2.138.403 1.055 1.055 1.228.651.173 1.284.142.634-.032 1.09.307.455.339 2.496-1.352 2.041-1.691 2.307-2.154" stroke="#50514f" stroke-width="1.24"/><path d="m449.267 543.039q.063 0 .203 0-2.229 6.047-27.469 17.906.417 1.093.524.867.967.965 3.728 2.346 2.76 1.381 6.734 2.77 3.975 1.388 7.588 4.034 3.612 2.646 6.801 5.639.227-.293.422-.585" stroke="#50514f" stroke-width="1.277"/><path d="m465.986 535.199q.094.119-.016 3.479-.11 3.36-.152 5.443-.043 2.084 1.168 4.016 0-.03-.051-.194-.051-.164-.152-.463" stroke="#50514f" stroke-width="1.32"/><path d="m465.064 537.062q.036-.091-.092-.915-.128-.824.042-1.328.17-.503.811-.735.64-.233 1.208-.259.568-.027.635-.075.068-.049 1.533-.088 1.464-.039 1.985.474.522.513.661 2.269.14 1.756-.876 2.87-1.016 1.114-1.678 1.639-.663.526-.807.823-.143.297-3.625 1.302.962-.471 3.49-.473 2.529-.003 3.475.258.946.261 1.766.775.82.514.878 1.099.057.584-.069 1.049-.127.465-.58.669-.454.203-.438.641.016.439-4.768 1.84-4.785 1.402-5.489 1.572" stroke="#50514f" stroke-width="1.316"/><path d="m463.126 577.199q0-.029 0-.129.449.244 1.297 15.656.608-1.195.491-2.056-.116-.862-.116-1.459" stroke="#50514f" stroke-width="1.272"/><path d="m464.533 585.566q-.119-.96-1.305-8.332-.508.153 1.24-.143 1.747-.296 2.816.004 1.068.3 1.461.729.394.43.507 1.012.113.582.102 1.054-.011.472-.017.368-.007-.103.129.013.135.116-.442.896-.578.78-1.811 1.848-1.233 1.067-2.074 1.613-.84.546-1.657.975-.817.43-2.074.76 1.031-.477 1.062-.404 1.179-.4 3.733-.293 2.555.107 3.841 1.115 1.286 1.007 1.512 2.49.226 1.484-1.397 2.613-1.622 1.129-3.386 1.438-1.764.309-2.875.225-1.112-.085-1.78-.54-.668-.455-.801-1.102-.132-.647-.038-1.086.093-.439.924-1.123.83-.684 1.267-1.083" stroke="#50514f" stroke-width="1.272"/><path d="m481.048 575.418q-.097-.775.038-.61.134.165.119.075-.015-.089-.011.001.004.09-.448-.528-.452-.617-1.34-.127-.889.49-1.49 1.277-.601.787-.905 2.049-.304 1.263-.301 2.645.004 1.383 1.617 1.612 1.613.229 3.253.322 1.639.094 3.042-1.439 1.403-1.533 1.739-1.902" stroke="#50514f" stroke-width="1.287"/><path d="m337.731 496.862q.063-.071-.161-.363-.682-.082 1.3 11.629-.16-.052-.959-3.359-.799-3.308-1.197-5.62-.398-2.313-.283-4.113.808-.186 1.775-.107.967.079 1.66.632.693.553.844 1.482.152.929.272 1.619.121.689-.613 2.031-.735 1.342-2.907 1.802 0-.162-.024-.502-.024-.341-.073-.611" stroke="#6dc1b3" stroke-width="1.439"/><path d="m346.305 493.848q-.482-.622-.441-.518.042.105.017.066-.349.02-.813 2.854-.464 2.834-.59 4.717-.126 1.884-.134 2.846-.008.963.509 1.947.516.984 1.215 1.198.699.215.882.259" stroke="#6dc1b3" stroke-width="2.018"/><path d="m347.82 505.573q-.442-.159-.413-.181-.29-.535-.3-.173-.011.362-.064-.564-.054-.927.103-1.881.156-.955.361-1.771.204-.817.301-1.229.098-.411.167-1.287.069-.876.348-1.714.278-.837 1.093-1.555.185-.253.838 1.541.653 1.794 1.214 8.862-.274.117-.456.186" stroke="#6dc1b3" stroke-width="1.371"/><path d="m347.455 502.333q-.027 0-.097.254 1.137.699 3.432.041 2.295-.657 2.596-.843" stroke="#6dc1b3" stroke-width="1.363"/><path d="m352.29 491.39q-.021-.093-.096-.411.909.231 2.246 2.224 1.337 1.994 1.831 4.029.494 2.035.389 3.832-.104 1.798-1.53 3.931-1.427 2.133-1.883 2.681" stroke="#6dc1b3" stroke-width="1.363"/><path d="m336.001 544.682q.021 0 .043 0-.008.629 0 4.144.009 3.515.791 5.433.783 1.919.896 2.1" stroke="#6dc1b3" stroke-width="1.384"/><path d="m336.732 548.881q-.307-.765.134-5.75-.31.112.278-.115.589-.228 1.515-.065.926.163 1.356 1.63.43 1.466-.073 2.872-.503 1.406-1.798 2.737-1.295 1.331-2.233 2.066-.939.736-1.443.369-.503-.368-.616-.642" stroke="#6dc1b3" stroke-width="1.384"/><path d="m345.768 541.483q-.229-1.128-1.692-1.572-.113-.484-.771 3.537-.657 4.021-.692 6.346-.034 2.326-.004 3.465.029 1.138.725 2.429.696 1.29 1.347 1.289.652-.001.904.019" stroke="#6dc1b3" stroke-width="1.322"/><path d="m347.133 553.257q-.108.233-.957 1.007-.841.239 2.284-9.699 1.59.237 1.773 11.113-.175.217-1.099-.002-.924-.22-1.599-1.38-.676-1.161-.703-1.95.868-.006.827-.024-.646.455 2.527-.353 3.173-.808 3.383-.945" stroke="#6dc1b3" stroke-width="1.322"/><path d="m355.159 541.991q-.423-.514-.403-.44-.702-.229-.601-.157-.869.1-.704.23-.562.336-.653 1.522-.092 1.186-.149 1.772-.058.586.273 1.048.331.463.709.78.378.318.909.513.531.194 1.271-.291.74-.485.992-.739" stroke="#6dc1b3" stroke-width="1.492"/><path d="m358.361 538.106q-.07-.02-.279-.137-.194-.043 1.301 1.967 1.495 2.01 2.277 4.117.782 2.107.99 4.37.208 2.262-1.93 5.133-2.138 2.872-2.595 3.303" stroke="#6dc1b3" stroke-width="1.355"/><path d="m411.463 439.693q.108-.177-.113 4.89-.222 5.067.505 10.252h.027q.043-.113.086-.226" stroke="#6dc1b3" stroke-width="1.308"/><path d="m409.508 442.562q-.072-.045-.21-2.781 1.018-.216.822-.161 1.581-.16 2.655.6 1.074.761 1.356 2.4.282 1.638-.972 2.642-1.253 1.003-3.608.543-.065-.229-.121-.423-.057-.193-.148-.443" stroke="#6dc1b3" stroke-width="1.308"/><path d="m419.866 437.315q.012.019.056.03.044.011-.548-.208-.592-.219-.587-.24.004-.02-.316.359-.319.379-.66 1.314-.341.935-.802 3.804-.461 2.868-.596 4.935-.134 2.067-.218 3.448-.084 1.38.936 2.125 1.021.744 1.23.857" stroke="#6dc1b3" stroke-width="1.315"/><path d="m421.553 441.788q-.654 1.287-.457 1.048.054-.106-.302 2.667-.357 2.773.612 4.995.969 2.222 1.103 2.29" stroke="#6dc1b3" stroke-width="1.315"/><path d="m421.918 442.521q-.042-.178-.204-1.692.18.029.833-.189.653-.217 1.173.726.52.943.509 2.424-.011 1.481-3.45 4.663-.163-.309.239-.821.402-.513 1.056-.843.655-.331 1.258-.383.604-.053.997-.032.393.021.579.103.186.081.171.082-.014.001.337.423.351.423.263.487.52.423-.297 1.441-.818 1.019-1.618 1.515-.801.497-2.62 2.403 0-.02 0-.04" stroke="#6dc1b3" stroke-width="1.315"/><path d="m428.44 435.397q0-.02-.043-.04-.189.285.32 5.965.508 5.68.575 8.744.067 3.064.062 4.595-.005 1.53-.479 2.455-.139 0-.252 0" stroke="#6dc1b3" stroke-width="1.428"/><path d="m432.685 452.192q-.022 0-.14 0-.058-.079 1.896-10.928.631-.073 1.18 3.305.549 3.378.359 5.307-.19 1.929-.373 2.09" stroke="#6dc1b3" stroke-width="1.315"/><path d="m433.415 448.864q.866 0 .731 0 .274.157 1.95-.142 1.676-.298 1.929-.503" stroke="#6dc1b3" stroke-width="1.315"/><path d="m437.563 438.323q.088-.179 1.318 2.204 1.23 2.383 1.747 4.449.517 2.067.518 3.618.001 1.551-1.458 3.372-1.459 1.821-1.986 2.369" stroke="#6dc1b3" stroke-width="1.366"/><path d="m404.49 493.259q0-.024 0-.096-.064.047-.013 4.248.052 4.202 1.56 8.847.048-.044.097-.089" stroke="#6dc1b3" stroke-width="1.33"/><path d="m404.619 501.149q-.732-.641-1.134-7.733-.184-.039.764-.268.948-.229 2.111.056 1.162.284 1.706 1.244.545.96.678 1.919.134.959-.153 1.516-.287.557-.935 1.061-.648.503-1.07.725-.422.223-1.297.369-.875.146-1.238-.203-.362-.35-.475-.556" stroke="#6dc1b3" stroke-width="1.282"/><path d="m413.064 490.793q-.151-.804-.765-.508-.614.295-.766 2.686-.151 2.392-.157 4.734-.006 2.343-.169 4.801-.164 2.458 1.532 4.578 1.695 2.119 2.012 2.373" stroke="#6dc1b3" stroke-width="1.36"/><path d="m415.89 497.273q-.064-.025-.338.044-.088.466-.097 2.56-.009 2.094.247 3.303.256 1.21.561 1.919.305.708.391.783.085.074.078.092-.008.018.169-.099.176-.117.268-.342" stroke="#6dc1b3" stroke-width="1.299"/><path d="m416.535 502.196q-.527-.505-.892-6.41.968-.391.774-.294.481-.008 1.335-.082.854-.074 1.045.805.192.879.254 1.509.063.63-.488 1.799-.55 1.168-3.264 1.811-.086-.384.82-.623.906-.238 1.756.16.85.397 1.32.657.469.26.793.786.323.526.377.952.053.425.049.64-.004.215-.061.281-.057.066-.033.121.024.056-.582.444-.607.388-1.194.526-.586.138-1.189.153-.603.015-1.069.032-.467.018-.791-.259-.324-.278-.531-1.014-.208-.736-.299-1.035" stroke="#6dc1b3" stroke-width="1.299"/><path d="m423.831 492.341q.113-.226-.098-.601-.21-.375-.425-.495-.215-.12-.271-.272-.056-.152-.564.805-.507.958-.531 1.738-.024.781-.088 1.568-.065.787.267 1.47.333.683 1.092.835.76.151 1.194.005.434-.146.616-.259" stroke="#6dc1b3" stroke-width="1.45"/><path d="m427.624 487.054q-.504.338-.426 4.876.077 4.539.071 7.065-.007 2.525.091 4.682.097 2.156.086 5.334-.01 3.178-.102 3.315" stroke="#6dc1b3" stroke-width="1.532"/><path d="m430.589 505.396q-.04.053-.232.363-.192.311-.316.574-.124.263-.124.258.001-.005-.005.03-.005.035-.01.096-.111.364.278-3.553.388-3.917 1.801-8.015 1.442-.001 1.997 5.214.555 5.214.436 5.307" stroke="#6dc1b3" stroke-width="1.282"/><path d="m430.17 501.971q-.021.024-.086.25.804.226 2.521.046 1.718-.179 1.992-.385" stroke="#6dc1b3" stroke-width="1.282"/><path d="m437.38 493.163q-.32.63.817 2.861 1.138 2.231 1.559 3.838.421 1.607.466 3.34.045 1.733-1.968 3.799-2.013 2.065-2.421 2.408" stroke="#6dc1b3" stroke-width="1.408"/><path d="m412.699 538.566h-.022q-.804.211.476 6.23 1.281 6.019 1.372 6.18" stroke="#6dc1b3" stroke-width="1.308"/><path d="m412.247 539.887q0-.609 0-.455-.21-.261.71-.782.921-.521 1.735-.472.815.049 1 .183.186.135.379.269.194.133.243.952.05.819-.032 1.533-.081.715-1.1 1.817-1.018 1.102-1.67 1.344-.652.241-.856.31" stroke="#6dc1b3" stroke-width="1.308"/><path d="m420.596 534.689q-.454-.411-.456-.274-1.045.446-.822.637-.484.697-1.052 4.375-.568 3.679-.722 6.435-.153 2.756.172 4.196.326 1.44 1.09 1.886.764.446 1.06.628" stroke="#6dc1b3" stroke-width="1.292"/><path d="m422.552 539.847q0-.024-.022-.097h-.021q.036.652-.147 3.627-.184 2.975.506 4.535.689 1.561.78 1.605" stroke="#6dc1b3" stroke-width="1.332"/><path d="m422.649 541.717q.001.063.155-2.466-.301-.208 2.466.044 1.708.648-3.212 5.838-.832-.493 4.765-1.321 1.702 1.27-4.083 5.246-.161-.089-.274-.177" stroke="#6dc1b3" stroke-width="1.332"/><path d="m429.536 530.853q.022 0 .07 0 .013-.05.383 12.021.369 12.071.278 12.164" stroke="#6dc1b3" stroke-width="1.336"/><path d="m434.919 548.558q.057.103-.773.299-.285-.188-.177-2.847.108-2.659.38-3.959.272-1.3.469-1.815.198-.515.558-1.08.361-.566.531-.531.169.035.546.38.377.345.833 2.434.456 2.09.753 3.519.297 1.43-.063 3.991-.182.069-.33.113-.148.044-.352.133" stroke="#6dc1b3" stroke-width="1.321"/><path d="m434.962 545.641q-.021 0-.043-.254-.11-.081 2.411-.441 2.521-.36 2.747-.498" stroke="#6dc1b3" stroke-width="1.321"/><path d="m443.859 536.148q-.279-.078-.935-.295-.655-.217-1.402-.036-.747.18-.957.87-.209.691-.313.91-.103.22-.186 1.593-.084 1.373.211 2.245.294.872.757 1.647.463.774 1.759.297 1.297-.478 1.571-.703" stroke="#6dc1b3" stroke-width="1.439"/><path d="m445.826 533.319q.015 1.065.021.774.015.448.712 1.664.696 1.217 1.146 3.347.451 2.13.493 3.596.042 1.466.039 2.514-.002 1.048-2.279 3.701-2.276 2.653-2.872 3.157" stroke="#6dc1b3" stroke-width="1.321"/><path d="m411.28 578.352q.027 0 .119.024.285.47.342 5.52.058 5.049.958 11.226.07.024.139 0 0-.889 0-1.015 0-.125 0-.516" stroke="#6dc1b3" stroke-width="1.308"/><path d="m410.464 584.38q.028-.43-.043-1.544-.071-1.114.09-1.97.162-.855 1.185-1.075 1.023-.22 1.96 1.046.936 1.266 1.084 2.415.147 1.15-.071 1.924-.219.774-1.492 1.725-1.274.95-3.718.851-.07-.181-.137-.409-.067-.227-.137-.409" stroke="#6dc1b3" stroke-width="1.3"/><path d="m421.23 576.667q.246.104-.004-.277-.251-.381-1.086-.613-.303.021-1.078 3.917-.774 3.896-.817 6.763-.042 2.866.36 4.29.402 1.424 1.467 2.093 1.065.668 1.867.494.801-.174 1.075-.428" stroke="#6dc1b3" stroke-width="1.3"/><path d="m423.154 582.188q0-.045 0-.137-.09-.397.588 3.944.679 4.34 2.372 8.603.07 0 .113 0 .021-.068-.024-.822-.046-.753-.137-1.047" stroke="#6dc1b3" stroke-width="1.29"/><path d="m424.422 585.653q.05.259-.704-3.034.538-.266 1.475.008.937.274 1.431 1.459.493 1.185.458 2.175-.036.99-.741 2.199-.705 1.208-2.489 1.666.091-.589-.013-.387-.104.202.167-.454.272-.655 1.177-.805.905-.149 1.952.063 1.047.212 1.566.573.52.361.785.912.265.551.216.928-.049.377.063.318.112-.059-.444.85-.556.908-1.414 1.2-.857.291-1.735.398-.877.107-1.198-.786-.321-.892-.456-1.166" stroke="#6dc1b3" stroke-width="1.29"/><path d="m434.103 581.18q.395-.402-2.402-1.438-.368.3-.703 1.966-.336 1.666-.275 2.723.062 1.058.426 1.86.365.803 1.236 1.117.872.315 1.453-.206.582-.522.813-.775" stroke="#6dc1b3" stroke-width="1.29"/><path d="m435.65 575.845q-.021 0-.043 0-.079.924-.04 5.864.039 4.94.321 8.508.282 3.568.858 10.175-.021-.205-.043-.411" stroke="#6dc1b3" stroke-width="1.43"/><path d="m440.034 594.236q0 .207-.075.362-.022 0-.065 0-.466 1.152 1.231-11.5 1.302-.492 3.105 10.884-.004.008-.303.015-.299.008-.326-.005-.028-.012-.234-.229-.206-.216-.41-.446" stroke="#6dc1b3" stroke-width="1.29"/><path d="m439.346 590.174q.023-.098-.054.664-.077.763 2.989.48 3.067-.282 3.222-.419" stroke="#6dc1b3" stroke-width="1.29"/><path d="m445.052 579.673q1.093.599.872.533-.221-.066.102.256.322.323 1.429 2.25 1.108 1.928 1.697 4.749.589 2.82.363 5.496-.225 2.675-1.912 5.238-1.686 2.564-2.465 3.43" stroke="#6dc1b3" stroke-width="1.36"/><path d="m337.531 645.919q0-.094 0-.187.034-.136 1.452 13.067.092-.024.162-.048" stroke="#50514f" stroke-width="1.693"/><path d="m340.391 650.283q.72.551 2.276 7.273.07 0 .141 0 .354-.612.443-2.058.088-1.446.273-3.064.185-1.618.549-2.237.363-.619.959-.456.595.163 1.005 1.111.409.949.781 2.615.373 1.666.676 2.991.303 1.326.395 1.464" stroke="#50514f" stroke-width="1.376"/><path d="m353.047 652.176q.09-.138-2.422-.69-.678-.13-.206 5.725 1.087.705 1.861-1.682.774-2.388 1.087-5.477.313-3.09-.531-5.791h-.114q-.082.294-.2 2.814-.118 2.519.198 4.431.317 1.912.93 3.197.612 1.285 1.521 1.937.909.652 2.032.708 1.123.056 1.966-1.356.843-1.411 1.055-2.958.213-1.547-.032-2.751-.244-1.205-1.679-1.491-.435.266-.631 2.48-.196 2.214-.155 3.307.041 1.094 0 1.392-.041.299 1.04 1.781 1.08 1.482 2.198.149 1.119-1.332 1.324-1.678" stroke="#50514f" stroke-width="1.375"/><path d="m363.481 650.104q-.315.268.255 6.48.571 6.213 2.79 14.039-.092-.287-.981-4.108-.89-3.822-1.718-7.332-.828-3.509-.985-7.905.007-.173.875-.042.868.131 1.822 1.407.955 1.276 1.327 2.667.373 1.392.132 2.627-.241 1.234-1.324 2.381-1.082 1.147-1.586 1.561" stroke="#50514f" stroke-width="1.53"/><path d="m372.962 654.793q-.039-.375-.867 1.983.288.207 1.084-.991.796-1.198 1.06-2.529.263-1.331.222-1.758-.041-.426-.152-.965-.111-.54-.341-.669-.229-.13-.631-.071-.402.058-.779.798-.378.74-.535 2.444-.156 1.704-.118 2.939.038 1.235.519 2.056.481.82 1.471.849.991.029 1.542-.284.551-.313 1.382-1.261.831-.947 1.213-3.265.383-2.319.201-4.587-.07-.02-.135-.02-.037 1.111-.022.983-.463.247.965 6.859.574-.065.804-1.853.231-1.788.66-2.886.429-1.099.817-1.566.388-.466.506-.557.118-.091.61.079.492.169.555.462.063.293.283 1.23.22.937.273 1.455.053.517.052.604-.001.087.046 1.074.046.987.302 1.527.256.54.71.656.455.116.688.116" stroke="#50514f" stroke-width="1.329"/><path d="m389.063 651.802q-.13-.689-2.318-.804-.171-.013-.601 1.473-.43 1.487-.323 2.632.108 1.145.053 1.337-.055.193.741.678.796.486 1.271.014.475-.471.727-1.202.252-.732.567-1.448.316-.717.84-3.38.524-2.663-.605-5.419h-.14q-.144.412-.297 3.176-.153 2.764.178 4.752.331 1.989 1.043 3.006.712 1.018 1.714 1.075 1.001.057 1.343-.093.341-.15 1.23-1.659.889-1.509 1.09-3.039.2-1.53.295-2.972.095-1.442-1.233-1.991-.18-.251-.485 2.04-.305 2.291-.217 3.703.089 1.412.478 2.002.389.59.755.893.365.303 1.514-.28 1.148-.582 1.471-.905.322-.322.413-.317.092.005.213-.278.121-.283.172-.49.05-.207.036-.383-.015-.176-.045-1.146-.029-.97.271-2.409.3-1.439 1.914-2.287.533.142.554 2.777.02 2.635 1.462 5.276.564.371 1.348-2.892.785-3.263 1.16-9.217-.152-.504 1.571 15.189-.114 0-.276-.116-.163-.116-.396-.347" stroke="#50514f" stroke-width="1.324"/><path d="m403.008 651.25q-.021 0-.043 0-.833.452 2.457.744 3.291.292 3.611.361" stroke="#50514f" stroke-width="1.329"/><path d="m419.478 648.259q-.213-.916.218.142.432 1.057.573 1.289" stroke="#50514f" stroke-width="1.279"/></g><circle cx="420.312" cy="654.2" fill="#50514f" r=".639" stroke="#50514f" stroke-width=".1"/><g fill="none" stroke-linecap="round" stroke-linejoin="round"><path d="m439.079 644.578q-.812.08-.618.228-.338.607-.345 4.654-.006 4.047 1.374 11.038.288.589-.311-2.062-.599-2.651-.984-5.126-.384-2.476-.454-3.816-.071-1.34.052-2.121.124-.78.345-.901.221-.12.318-.139.096-.02.849-.066.754-.047 1.278.104.525.15 1.065.508.541.358.939 1.235.399.877.491 1.941.092 1.064-.342 2.254-.434 1.189-1.25 1.676-.815.488-1.3.337-.484-.151-.641-.358" stroke="#6dc1b3" stroke-width="1.333"/><path d="m449.34 643.936q-.351-.635-1.184.5-.833 1.135-1.365 4.24-.533 3.104-.613 4.962-.08 1.859-.082 3.015-.002 1.155.393 2.195.396 1.04 1.279 1.059.884.018 1.117-.051" stroke="#6dc1b3" stroke-width="1.432"/><path d="m453.945 646.285q-.421-.493-.684 4.035-.263 4.529 1.166 9.674.095.085.161-.384.066-.469.137-.811" stroke="#6dc1b3" stroke-width="1.298"/><path d="m454.4 651.16q-.026-.361-.13-2.511-.065-.375 3.126.301 1.366 1.124-4.47 6.623.538-.836.531-.691.046-.505 1.384-.907 1.337-.401 2.242-.279.904.122 1.127.257.223.134.434.32.212.187.167 1.217-.044 1.03-.33 1.433-.286.402-.695.844-.409.441-.926.789-.516.348-1.198.212-.683-.135-.84-.343" stroke="#6dc1b3" stroke-width="1.277"/><path d="m460.381 644.074q1.097.548 1.275 4.132.178 3.584.336 6.559.159 2.974.067 5.33-.091 2.357-.205 2.702" stroke="#6dc1b3" stroke-width="2.061"/><path d="m468.8 657.735q-.776.061-.547.073-.093.045-.32.114.201-.379 3.814-9.338.092 0 .184 0 .055-1.011.499 4.819.444 5.831.465 6.038" stroke="#6dc1b3" stroke-width="1.322"/><path d="m469.493 656.126q-.262-.515-.206-.459-.021-.114 0-.346.191-.084 3.27-.306 3.08-.222 3.383-.311" stroke="#6dc1b3" stroke-width="1.276"/><path d="m476.168 644.391q0-.069 0-.179-.2.333 1.441 2.302 1.641 1.968 2.36 4.419.719 2.452.826 4.025.108 1.574-.069 2.58-.176 1.007-.551 1.873-.374.866-1.202 1.815-.828.95-1.332 1.433" stroke="#6dc1b3" stroke-width="1.296"/><path d="m492.778 652.68q0-.049 0-.138.142.201 2.704.261 2.562.06 2.768.105" stroke="#6dc1b3" stroke-width="1.283"/><path d="m493.233 655.021q-.821.036-.617.048-.044 0-.065 0-.303-.078 2.17.134 2.472.212 2.89.329" stroke="#6dc1b3" stroke-width="1.283"/><path d="m513.202 650.51q0-.207-.178-1.446-.071-.025-.114-.025-.909.329 1.582 12.06-.108.069-1.479-3.526-1.371-3.595-1.002-10.004.544-.481 2.054.002 1.509.483 2.32 1.203.811.72 1.363 2.06.551 1.34.249 2.302-.302.962-1.307 2.002-1.004 1.039-4.679 1.516-.044-.163-.079-.333-.035-.171-.106-.374" stroke="#6dc1b3" stroke-width="1.292"/><path d="m523.973 644.302q0-.025-.071-.207-.067.037.058-.004.124-.041-.503.048-.627.089-1.412 3.185-.784 3.097-1.127 6.033-.343 2.935-.315 4.884.029 1.948.458 3.367.43 1.418 1.982 2.11 1.553.693 1.807.786" stroke="#6dc1b3" stroke-width="1.321"/><path d="m528.621 650.648q-1.454.36-.323 5.786 1.13 5.425 1.244 5.494" stroke="#6dc1b3" stroke-width="1.293"/><path d="m528.155 654.744q-.089-.705-.213-2.104-.123-1.4.259-2.137.383-.737 3.248-.956.234.022.205 1.371-.03 1.349-.729 2.569-.699 1.221-1.388 2.235-.689 1.015-1.512 1.281.585-.591 1.038-.888.453-.297 1.267-.445.813-.148 1.47-.209.656-.06 1.044.683.388.744.253 1.804-.136 1.06-.972 2.068-.836 1.009-2.034 1.432-1.199.422-2.102.526-.903.104-1.308-.629-.406-.733-.498-.985" stroke="#6dc1b3" stroke-width="1.284"/><path d="m535.111 641.774q.561.903.434.85.093-.981.943 6.447.85 7.427.974 13.846.125 6.418.033 6.739" stroke="#6dc1b3" stroke-width="1.377"/><path d="m542.978 658.84q-.117.267-.392.37-.275.103-.154.074.122-.03-.148-.099-.398-.241 4.714-12.9h.07q-.098 1.507 1.297 8.54 1.395 7.034 1.33 7.103" stroke="#6dc1b3" stroke-width="1.259"/><path d="m543.617 654.606q-.043-.02-.087-.041 1.948.306 3.848-.192 1.9-.498 2.177-.636" stroke="#6dc1b3" stroke-width="1.259"/><path d="m554.615 645.911q.147.082-.63-.249-.777-.33-1.086.655-.309.986-.369 2.124-.059 1.138.298 1.799.358.661 1.14.756.782.095 1.058.164" stroke="#6dc1b3" stroke-width="1.259"/><path d="m559.859 641.588q-.584-.43.98 2.649 1.564 3.08 2.092 5.757.528 2.678.931 4.74.403 2.063-1.659 4.582-2.062 2.519-2.615 3.026" stroke="#6dc1b3" stroke-width="1.426"/><path d="m384.047 674.808q-.181-.559-.18-.563 0-.003-.026.011-.022-.069-.022-.09-.212-.218.53.632.743.851 1.384 1.065.641.213 1.208.187.567-.027.862-.336.296-.308.437-.491" stroke="#50514f" stroke-width="1.496"/><path d="m388.24 674.995q.005-.897.021-.715.111-.971.065-.646.389-.818.396-.532.385-.318 1.298.235.912.553 1.167.691" stroke="#50514f" stroke-width="1.496"/><path d="m396.745 688.152q0 .069-.065.276-.043 0-.227 0-.432-.057.559-2.584.991-2.527 3.396-10.117.391.599 1.842 12.035-.484.03-.678.037-.194.008-.449.028" stroke="#50514f" stroke-width="1.434"/><path d="m397.992 684.658q-.07-.829-.044-.622.076-.395 3.971-.303 3.896.092 4.264.185" stroke="#50514f" stroke-width="1.434"/><path d="m426.38 685.348q-.009-.769-.092-.764.05-.265-.616-.946-.667-.68-1.198-.817-.531-.136-.82-.223-.289-.088-.85.367-.561.455-1.27 2.208-.708 1.753-.447 4.173 1.055.482 2.179-1.153 1.124-1.634 1.95-3.503.826-1.869 1.077-4.067.252-2.198.268-3.364.016-1.167-1.053-1.581-.144-.625-.393 2.118-.249 2.743-.211 4.603.038 1.861.665 2.85.626.989 1.098 1.587.473.599 1.474.59 1.002-.009 1.273-.054" stroke="#50514f" stroke-width="1.4"/><path d="m430.432 684.698q.111.194-.077-.173-.189-.368-.537-.577-.347-.208-.428-.067-.081.141-.273.593-.193.452-.145.747.049.294.059.642.01.348.023.457.014.108.383.398.369.29.431.268.062-.022.327.103.266.125.927-.061.66-.186.965-.586.305-.4.459-.933.154-.532.295-1.563.141-1.03-.191-1.622-.333-.592-.689-.762-.356-.17-.853.063-.497.234-.565.566-.069.332-.309 1.646-.241 1.315-.071 2.305.169.99.604 1.438.435.449.743.622.309.173.549.232.241.058.562.1.321.042.803-.067.481-.108.779-.266" stroke="#50514f" stroke-width="1.4"/><path d="m436.132 685.389q-.003-.748-.044-.731.006-.063-.186-.372-.193-.309-.236-.318-.043-.009.04.028.083.037-.441-.265-.425.961.101 1.419.526.458 1.014.629.488.171 1.257.041.77-.131 1.276-1.097.506-.966.545-1.967.039-1-.478-1.318-.518-.318-.733-.376-.215-.057-.964.341-.748.399-1.16 2.149-.412 1.75-.364 2.569.049.818.133 1.444.085.625.458.998.374.373.427.386.052.013.588.259.537.245 1.588-.763 1.052-1.008 1.328-1.309" stroke="#50514f" stroke-width="1.4"/><path d="m442.947 683.414q.598.156-1.149-2.161-.396-1.134 1.355 4.689.23.21-4.118 1.194.616-.077 2.367-.705 1.751-.628 2.054-.766" stroke="#50514f" stroke-width="1.4"/><path d="m449.621 686.356q.081.72.123.569.041-.15.013-.096-.028.054.008.049.036-.004-.406.51-.442.513-.469.434-.026-.079-.088-.076-.061.004-.016.02.045.015-.246.078-.29.063-.465-.068-.175-.131-.38-.68-.205-.548-.248-.913-.044-.365.398-2.537.441-2.171 2.324-4.1.5-.035.492 2.482-.008 2.517.407 4.011.416 1.493.729 1.883.313.39.736.414.423.025 1.549-2.352 1.126-2.376 1.38-8.925-.003.216.39 3.718.393 3.501 2.557 9.423-.879.01-1.534-1.456-.655-1.466-.861-1.787" stroke="#50514f" stroke-width="1.4"/><path d="m454.822 683.593q-.136-.26-.26-1.743.746-.076.759-.045.401.282 2.882-.135 2.481-.417 2.6-.556" stroke="#50514f" stroke-width="1.4"/><path d="m451.366 677.198q-.39-.011-1.376.048 0 .025 0 .09.114 0 .298-.035.184-.034.439-.103" stroke="#50514f" stroke-width="1.4"/><path d="m476.764 684.105q.097-.395.28-.902.183-.506.172-1.748-.011-1.241-.635-1.722-.623-.48-1.095-.705-.471-.225-1.022.122-.551.346-.753.857-.203.512-.756 1.609-.553 1.097-.728 2.947-.175 1.85.006 2.855.18 1.005.657 1.325.477.32.823.592.346.272 1.272.14.926-.133 1.349-.546.423-.413 1.04-.905.617-.491 1.273-2.515.656-2.024.72-4.751.064-2.727-1.086-5.446h-.093q-.883-.445 1.842 13.165.003-.096-.008-.028-.011.068.103.157.114.089 1.006-2.268.892-2.357 1.303-3.669.411-1.312 1.324-2.018.086.345.126.672.04.328.054.394.014.066.025.389.012.324.119 1.942.108 1.618.228 2.217.121.598.427.743.305.146.741.237.437.092.626.009.19-.082.403-.29.213-.207.344-.381.132-.174.552-.818.421-.643.541-1.172.12-.53.258-1.23.138-.701-.269-1.239-.406-.538-.929-.779-.523-.24-.697-.094-.174.146-.09.095.084-.051-.05-.004-.134.046-.544 1.512-.409 1.467-.446 2.588-.037 1.121.213 1.841.25.72 1.067.514.816-.206 1.265-1.095.45-.888.572-1.271.122-.383.182-.496.061-.113.218-.974.158-.861.259-2.708.033-.622.043 1.278.009 1.9.338 3.351.328 1.452 1.673 1.535.461-1.133.341-.878.023-.129.004-.055-.02.073.159-.517.179-.59.899-5.178.005-.006.78 7.038.021 0 .119 0 .165.03.531-1.665.367-1.696.784-2.956.418-1.26.918-1.735.499-.474.563-.41.063.064.037.015-.027-.05-.034-.109-.007-.06-.014-.052-.007.008.222.557.228.549.284.838.056.289.09.368.034.078.022.102-.013.023.174.84.186.818.352 1.494.165.676 1.16 1.278.995.602 2.224-.303 1.229-.905 1.849-1.836.62-.93.664-1.68.043-.749.063-1.252.019-.503-.486-.968-.505-.465-.837-.535-.333-.069-1.423 1.434-1.09 1.503-.962 6.372.838.209 1.267-.421.429-.631 1.033-2.045.604-1.415 2.37-3.45.03-.003.828 4.045.798 4.049 1.171 6.416.372 2.367.44 3.652.068 1.285-.342 1.749-.411.464-1.134.35-.723-.114-1.477-1.755-.754-1.641-.885-3.169-.131-1.528-.11-2.599.021-1.072.24-1.319.218-.247 1.154-.399.936-.152 2.388-.42 1.452-.268 2.27-.679.818-.41 1.531-1.004.713-.595.977-1.864.264-1.268-.014-2.235-.278-.967-1.084-1.255-.806-.288-1.139 1.119-.334 1.407-.382 2.561-.048 1.155.121 2.152.168.997 1.857 1.536 1.69.539 3.28-1.835 1.59-2.374 1.845-2.788" stroke="#50514f" stroke-width="1.389"/><path d="m526.508 676.783q.043-.114.271-.593.117.314-.035 4.143-.153 3.83-.032 6.132.121 2.302.945 4.263-.049-.114-.098-.228" stroke="#50514f" stroke-width="1.351"/><path d="m520.657 685.576q-.328-.252-.271-.252.972-.934 7.272-1.298 6.299-.364 6.391-.295" stroke="#50514f" stroke-width="1.351"/><path d="m529.954 677.571q-.011-.186-.688-.093-.157-.062-.317 3.575-.161 3.636.636 7.237.337.598.486-.535.148-1.133.366-2.148.219-1.015.484-1.471.265-.456.447-.519.182-.064.424.062.243.126 1.371 1.232 1.128 1.107 1.761 1.255.633.147 1.013.134.379-.014.594-.316.214-.303.303-.527.089-.224.093-.637.005-.413.051-.297.046.115.052-.434.006-.55-.578-1.072-.583-.521-1.199-.455-.617.067-.622.046-.006-.021-.425 1.118-.419 1.14-.409 2.251.01 1.111.067 1.44.057.33.246 1.02.189.69 1.301.875 1.113.185 2.137-.032 1.025-.217 1.806-.918.781-.702 2.029-2.136 1.248-1.434 1.551-1.804" stroke="#50514f" stroke-width="1.351"/><path d="m552.589 683.227q-.002-.923-.022-.784-.001-.161-.154-.223-.153-.062-.656.089-.503.151-.73.684-.226.533-.446 1.242-.22.709-.254 1.724-.035 1.015.19 1.747.225.732 1.123.991.897.26 1.298.2.401-.06.771-.354.371-.295.375-.814.004-.519.14-.753.135-.233-.357-.866-.492-.633-1.408-1.426-.917-.793-3.359-.993.448.197 6.923-1.589.022-.833.092 6.875-.206.031.41.125.616.093 1.208-.466.592-.559 1.376-2.361.784-1.802.522-5.347h-.021q-.014.086-.083 2.3-.07 2.213.135 3.459.204 1.245.539 2.115.335.87.654 1.328.319.458 1.099.122.78-.337 1.45-2.933.67-2.596.832-3.035" stroke="#50514f" stroke-width="1.41"/><path d="m564.551 677.986q0-.118-.109-.512h-.021q-.398.168.682 13.62-.632-.018-.763-.387-.131-.369-.342-.67" stroke="#50514f" stroke-width="1.41"/><path d="m561.799 685.3q-.283-.581-.261-.533-.029-.092 0-.41-.179.12 3.652-.564 3.83-.684 4.334-.891" stroke="#50514f" stroke-width="1.41"/><path d="m575.321 683.04q-.169-.504-.716-1.186-.547-.682-.949-.788-.402-.106-1.147.001-.744.107-1.425 1.364-.68 1.257-.831 2.186-.152.929-.27 1.614-.117.685-.07 1.556.048.87.436 1.33.389.459 1.555.743 1.166.285 2.202-.655 1.036-.939 1.312-1.24" stroke="#50514f" stroke-width="1.388"/><path d="m577.39 684.747q-.214-.876-.319-.577-.676-.033-.623.069-.53.787-.675 1.537-.145.75-.247 1.4-.102.649.418.901.52.253 1.065.271.545.019.898-.113.354-.132.328-.227-.026-.095-.035.125-.009.22.552-1.143.56-1.362.336-2.567-.225-1.205-2.294-1.655-.918.765.129 2.038 1.047 1.274 1.302 1.461" stroke="#50514f" stroke-width="1.388"/><path d="m580.847 687.924q0 .045.043.317.053.62-.087-1.439-.139-2.058 1.349-5.046.451-.058 1.588 4.945.419.033.417.021.501-.423 2.065-2.543 1.564-2.12.908-1.238-.655.882-.351.449-.002-.282.565.699.568.981 1.364 1.473.796.491 1.657.54.862.049 1.79-.446.927-.496 1.672-1.451.744-.955.849-1.822.104-.868-.024-1.106-.127-.238-.548-.272-.42-.034-.726.042-.305.075-.335-.023-.03-.099-.821 1.047-.791 1.147-.772 2.384.02 1.238-.018 1.975-.037.737 1.187 1.541 1.224.803 3.28-.821 2.057-1.623 2.425-1.989" stroke="#50514f" stroke-width="1.388"/><path d="m608.13 682.902q-.106-.232-.622-.517-.516-.285-1.256.294-.74.579-.785 1.007-.045.427-.209 1.456-.165 1.029.792 1.375.957.347 2.059.347 1.103 0 1.713-.113.61-.113 1.025-.373.415-.26 1.071-1.157.656-.896.698-1.62.042-.725-.356-1.806-.399-1.082-1.128-1.619-.73-.538-1.825-.834-1.095-.297-1.775 1.016-.679 1.313-.877 2-.199.686-.276 2.526-.076 1.839 1.639 1.012 1.715-.828 2.084-1.149" stroke="#50514f" stroke-width="1.378"/><path d="m616.04 674.857q0-.162 0-.463-.433-.183-.478 3.671-.045 3.854.881 7.862.925 4.008.891 7.747-.935.555-1.702-.85-.768-1.405-1.066-1.82" stroke="#50514f" stroke-width="1.378"/><path d="m611.532 684.056q0-.085.071-1.036.32-.058 5.266-.283 4.946-.225 5.379-.339" stroke="#50514f" stroke-width="1.378"/><path d="m630.396 677.571q-.06-.262-.134.292-.074.553-.186 1.054-.112.501-.288 3.631-.176 3.129.63 5.831.022 0 .049 0 .027-.113.084-.666.057-.552.127-.853" stroke="#50514f" stroke-width="1.372"/><path d="m629.703 679.497q-.008.527-.065-2.044-.157.124.413-.068.569-.192 1.705.451 1.135.642 1.461 1.53.327.888.378 1.569.051.681-.889 1.665-.939.984-2.03 1.423-1.091.44-2.165.472-.165-.107.098-.757.264-.651 1.339-1.048 1.074-.398 2.355-.314 1.28.084 2.034 1.11.753 1.026.986 1.845.233.82-.088 1.258-.32.439-2.329 1.131-2.009.693-3.181.321-1.171-.373-1.312-.531" stroke="#50514f" stroke-width="1.372"/><path d="m641.351 676.003q-.222-.175-.141 4.051.643.077.525.02.141-.138.269-.298.127-.161.311-.368" stroke="#50514f" stroke-width="1.338"/><path d="m645.446 675.272q-.008-.259-.074 2.583-.066 2.841-.11 3.024" stroke="#50514f" stroke-width="1.338"/><path d="m402.185 430.937q.021-.118.043-.691-.608.216.006 7.289.614 7.074.967 11.722.353 4.649.422 6.965.069 2.317-.015 3.065-.084.749.03 1.015.113.266.122.142.01-.124.207.243.198.366.524.057.326-.31.38-.34.054-.03.038-.02-.015.01.012.014.028.005-.109-.028-.136-.034.658-.48.794-.447 1.443-.516.648-.069 1.128-.055.48.014 1.274-.004.794-.018 1.948.042 1.154.06 4.319.323 3.165.262 4.732.343 1.567.081 7.066-.057 5.498-.137 9.568.416 4.07.554 4.482.647" stroke="#f45e58" stroke-width="1.481"/><path d="m402.781 431.717q.117 0-.325 0 .34.195 8.834-.03 8.495-.225 15.022.322 6.526.548 9.557.888 3.031.34 4.141.449 1.11.11 1.436.205.326.096.153.146-.174.049-.024-.07.15-.12.194-.023.045.097.163.627.118.529.103.907-.015.378-.011.34.004-.038.009 0 .004.039-.011.574-.015.534.049 1.8.065 1.266.133 1.817.069.551.113 2.481.044 1.931-.452 5.052-.496 3.12-1.995 16.997.043 0 .086 0" stroke="#f45e58" stroke-width="1.504"/><path d="m406.096 528.666q-.955-.05-.894 6.355.061 6.404.256 11.037.195 4.633 1.624 11.367h.044q.048-.118.119-.337.07-.22.184-.541" stroke="#f45e58" stroke-width="1.424"/><path d="m405.175 531.656q.044-.144-1.018-.325-.099-.085 2.83-.66 2.929-.575 11.15-.939 8.22-.364 12.406-.435 4.186-.071 9.161.24 4.976.311 9.386.303.037.865.022.617.024.836.031.809.006-.027.023-.014.017.014.087.128" stroke="#f45e58" stroke-width="1.42"/><path d="m450.401 531.331q-.078.747-.065.622-.128 1.02-.075.877.116.246-.08 7.175-.197 6.93-.909 12.666-.712 5.737-.853 5.9" stroke="#f45e58" stroke-width="1.421"/><path d="m409.13 558.985q-.162-.01.069-.004.23.005-1.542-.134.449.258 10.205.687 9.755.43 16.235.584 6.48.154 9.288-.028 2.807-.182 2.877-.138" stroke="#f45e58" stroke-width="1.416"/><path d="m401.632 446.532q.104-.522-.146.464-.249.986-.363 1.104" stroke="#f45e58" stroke-width="1.444"/><path d="m398.642 453.204q-.194.262-.849 1.05-.655.787-.859 2.067-.205 1.279-.319 1.531" stroke="#f45e58" stroke-width="1.444"/><path d="m395.055 463.971q-.602.799-.882 1.072-.28.272-.574.656-.295.385-.159 1.021.136.636.272.843" stroke="#f45e58" stroke-width="1.444"/><path d="m393.257 471.285q-.586-.686-.8 2.223-.214 2.909-.165 3.116" stroke="#f45e58" stroke-width="1.444"/><path d="m391.274 482.564q-.011-.304-.405.979-.393 1.283-.36 2.346.033 1.064.082 1.316" stroke="#f45e58" stroke-width="1.444"/><path d="m390.45 495.079q.074.028-.274 1.504-.348 1.476.031 2.77.379 1.293.514 1.569" stroke="#f45e58" stroke-width="1.444"/><path d="m392.01 506.489q-.554.292.265 2.423.819 2.131.982 2.363" stroke="#f45e58" stroke-width="1.444"/><path d="m395.283 519.182q.057-.14-.101.084-.158.224.8 2.293.958 2.068 1.143 2.32" stroke="#f45e58" stroke-width="1.411"/><path d="m400.527 532.436q.133.141.082.291-.051.15 1.782 2.887.092-.025.162-.049" stroke="#f45e58" stroke-width="1.397"/><path d="m401.535 487.115q.027-.069.054-.276-1.699 1.244.682 24.712.064-.138-.014-.668-.078-.53-.17-.9" stroke="#f45e58" stroke-width="1.4"/><path d="m401.719 488.033q-.458-.989-.385-.666-.092-.045-.352-.227.693-.15.661-.136-.032.014.326-.037.358-.052.363-.03.005.022.452-.074.447-.097 9.274-.478 8.827-.38 13.805-.58 4.977-.201 7.454-.159 2.477.042 4.426.464 1.949.422 3.048.447 1.099.026 1.235-.043" stroke="#f45e58" stroke-width="1.436"/><path d="m443.868 486.977q.012-.127-.694.276-.353.459.382 3.292.735 2.832.695 9.588-.041 6.755-.694 10.062-.653 3.307-.838 3.559" stroke="#f45e58" stroke-width="1.436"/><path d="m403.886 514.68q-.368-.186-.596-.325-.165-.212 3.699.241 3.863.453 9.621.734 5.758.282 8.73.319 2.972.037 4.375.082 1.403.045 2.434-.048 1.031-.093 11.583.443.114.228.16.389.046.16.117.367" stroke="#f45e58" stroke-width="1.34"/><path d="m406.042 572.191q0-.114-.022-.464-.557.026-.549 2.62.009 2.595.9 5.469.892 2.875 1.271 6.094.379 3.22.407 5.149.029 1.929.019 5.015.171-.353.202-.904.031-.55.08-.941" stroke="#f45e58" stroke-width="1.365"/><path d="m404.525 577.294q.08-.122-.019-.556-.098-.434-.1-.794-.002-.359.126-.539.127-.179.663-.488.535-.308.762-.358.227-.049 6.053-.243 5.827-.195 10.863-.593 5.036-.399 8.62-.533 3.583-.134 16.102-.122-.085.907.74 3.248.825 2.342 1.279 6.174.453 3.831.482 7.349.029 3.517-.063 3.651" stroke="#f45e58" stroke-width="1.366"/><path d="m416.726 596.806q.063.014-2.438.186.283.489 18.957-.505 18.673-.994 18.858-.925" stroke="#f45e58" stroke-width="1.398"/><path d="m444.746 501.84q-.613-.867-.466-.597-.065-.069-.228-.183.471.249 1.798 1.411 1.328 1.161 1.604 1.393" stroke="#f45e58" stroke-width="1.359"/><path d="m451.55 508.829q-.134.207-.643 1.05-.508.842.052 2.079.56 1.237 1.198 2.093.639.857.823 1.182" stroke="#f45e58" stroke-width="1.364"/><path d="m454.4 520.011q.095.099-.111 1.473-.206 1.375.887 3.287 1.093 1.912 1.25 2.188" stroke="#f45e58" stroke-width="1.364"/><path d="m457.347 531.518q.086.107-.087 1.332-.173 1.225.247 2.234.42 1.009.533 1.172" stroke="#f45e58" stroke-width="1.364"/><path d="m458.68 541.546q-.206-.557.035 2.115.241 2.671.333 2.948" stroke="#f45e58" stroke-width="1.364"/><path d="m459.005 552.037q-.1 1.032-.157.967-.272-.362-.459 2.105-.186 2.466-.251 3.96-.065 1.493-.731 3.738-.665 2.245-.816 3.233-.152.988-.177 1.55-.026.562-.213 1.259-.187.696-.328.952" stroke="#f45e58" stroke-width="1.364"/><path d="m455.646 572.792q-.038.595-.061.632-.022.036-.05.11-.028.074-.012-.094.015-.168-.356.971-.372 1.14-.442 1.323" stroke="#f45e58" stroke-width="1.364"/><path d="m453.392 580.423q-.502.723-.711.973-.21.25-.351.368" stroke="#f45e58" stroke-width="1.364"/><path d="m450.997 584.104q-.942.208-2.115.738-1.173.53-1.287.692" stroke="#f45e58" stroke-width="1.408"/><path d="m565.688 510.143q-.011.07.206-1.016h.044q.069-.492.196 2.437.126 2.93 2.155 18.367.103-.233.073-.533-.03-.3-.052-.621" stroke="#50514f" stroke-width="1.439"/><path d="m566.609 520.406q-.214-.925-.47-2.819-.255-1.895-.493-3.335-.237-1.44-.028-2.014.21-.574 1.023-.798.814-.224 1.434-.132.619.093 1.25.291.632.198 1.404 1.151.773.953 1.052 1.622.279.67.346 1.694.066 1.024.106 2.054.039 1.03-.607 2.158-.646 1.129-1.572 2.032-.926.903-2.128 1.121-1.203.218-1.501.242" stroke="#50514f" stroke-width="1.312"/><path d="m580.684 512.215q.025-.325-.475-1.061-.5-.736-.963-.687-.463.048-1.012.292-.549.243-1.092 3.547-.543 3.305-.508 6.401.036 3.097.081 4.694.044 1.598.412 2.781.368 1.185 1.115 2.055.747.87 1.513 1.153.767.284 1.113.377" stroke="#50514f" stroke-width="1.258"/><path d="m587.402 515.019q-.022 0-.043 0-.515-.037.574 13.758.043 0 .065 0-.031.125.044-.157.075-.282.14-.534" stroke="#50514f" stroke-width="1.26"/><path d="m586.763 519.391q-.052-.261-.381-.999-.328-.737-.102-1.608.227-.87.579-1.154.351-.283.767-.512.415-.229.674-.296.259-.067.691-.097.432-.029.796.005.363.034.551.178.189.143.555 1.661.367 1.518-.425 3.149-.792 1.631-1.376 2.379-.585.747-.847.983-.262.236-.702.219.103-.232.005-.039-.098.193.151-.4.248-.593 1.405-.899 1.156-.306 2.286-.119 1.129.186 1.767.827.638.64.974 1.522.337.881-.133 2.026-.469 1.146-1.942 2.216-1.474 1.07-4.123 1.217-.092-.321-.162-.548" stroke="#50514f" stroke-width="1.261"/><path d="m594.77 509.501q0-.025 0-.098.026.307 1.655 2.423 1.628 2.117 2.378 4.181.75 2.064 1.006 4.07.256 2.007-.194 4.305-.449 2.298-1.535 4.448-1.086 2.15-2.35 2.795-1.263.646-1.513.646" stroke="#50514f" stroke-width="1.271"/><path d="m605.345 517.554q.232 0-.682 0 .768.078 2.708.062 1.939-.016 3.24-.041 1.301-.024 1.813.459.511.483.603.666" stroke="#50514f" stroke-width="1.263"/><path d="m606.364 522.015q-.071 0-.239 0 .633.333.638.289.005-.044.445.036.441.081 2.42.108 1.98.027 2.348.071" stroke="#50514f" stroke-width="1.263"/><path d="m626.561 516.213q-.092-.101-.194 3.48-.102 3.58-.194 5.838-.092 2.258.48 3.798.162.025.276.049" stroke="#50514f" stroke-width="1.255"/><path d="m625.228 521.414q-.419-.408-.531-5.936.486-.306 1.575-.14 1.089.166 1.83 1.079.741.914 1.082 1.591.341.677.235 1.571-.106.894-.298 1.328-.192.435-1.125 1.298-.932.864-2.024.924-1.091.061-1.253-.008" stroke="#50514f" stroke-width="1.256"/><path d="m637.233 509.956q.182.099-.323-.263-.505-.362-.852.567-.347.93-.603 1.904-.255.974-.397 1.838-.143.863-.298 1.879-.155 1.017-.291 2.894-.135 1.878-.21 4.018-.076 2.14.005 3.606.08 1.465.703 2.888.623 1.423 1.802 1.813 1.179.391 1.57.48" stroke="#50514f" stroke-width="1.286"/><path d="m606.818 561.313q-.817 0-.729 0-.173 0-.483 0 .479.263 2.863.101 2.385-.162 3.86-.26 1.476-.097 1.669-.055" stroke="#50514f" stroke-width="1.239"/><path d="m608.07 564.384q-.705 0-.539 0h-.021q-.814.189 2.699.096 3.514-.093 3.881-.181" stroke="#50514f" stroke-width="1.24"/><path d="m433.567 495.513q-.383.121-2.359-1.559-.158-.06.677-.147.835-.087 1.214-.187" stroke="#50514f" stroke-width="1.507"/><path d="m650.005 517.509q-.284-.055.859 10.054.051-.117.102-.234" stroke="#6dc1b3" stroke-width="1.395"/><path d="m650.333 520.86q-.039-.072-.083-1.024-.045-.952-.075-1.369-.031-.417.901-1.008.931-.591 2.476-.05.26.728-.062 1.892-.323 1.165-2.555 3.253.071-.049.008-.029-.063.02-.101.038-.039.018.55-.224.588-.242 1.411-.227.823.015 1.102.135.278.12.883.461.605.34.802.871.197.53.198.975.001.445-.411.809-.411.365-1.067.909-.656.545-3.012 1.039-.101-.204-.084-.3.017-.095.017-.245" stroke="#6dc1b3" stroke-width="1.395"/><path d="m659.856 526.966q.072-.093-.179.398-.522-.434-.401-2.749.122-2.316.219-3.585.097-1.269.322-2.12.225-.85.417-1.083.193-.232.53-.362.336-.129.665.426.33.556 1.162 3.311.833 2.755 1.211 6.127-.345-.103-.364-.1-.018.004-.065-.122-.048-.127-.165-.311" stroke="#6dc1b3" stroke-width="1.391"/><path d="m666.856 526.93q0-.036 0 .563.016 0 .118-.015-.073-.362 1.64-11.065.505-.22 2.227 10.749-.321.186-.51-.005-.189-.191-.357-.391" stroke="#6dc1b3" stroke-width="1.348"/><path d="m667.255 522.155q.325-.067 1.602.095 1.277.161 2.441.257 1.164.096 1.363.146" stroke="#6dc1b3" stroke-width="1.354"/><path d="m648.278 513.929q-.174-.044-.878.118-.705.161-1.446 1.435-.741 1.274-.976 2.862-.235 1.588-.218 2.42.017.833-.037 1.821-.053.989.581 2.805.633 1.816 2.036 2.84 1.403 1.024 1.868 1.29" stroke="#6dc1b3" stroke-width="1.432"/><path d="m674.755 513.893q-.02-.017-.07-.164.22-.009 1.408 1.908 1.187 1.916 1.626 3.791.438 1.875.441 3.757.002 1.881-1.229 3.395-1.231 1.514-1.614 1.845" stroke="#6dc1b3" stroke-width="1.356"/><path d="m684.177 518.341q-.079.548-.122.766-.042.218.137 1.957.179 1.739.72 3.408.54 1.669 1.093 2.636.552.967 1.009 1.245.457.277 1.057.097.601-.181 1.442-8.85 0 .05 0 .1" stroke="#6dc1b3" stroke-width="1.374"/><path d="m697.38 516.846q.003-.235-.016-.515-.493.358-.507.303-.014-.055-.228 1.94-.215 1.996-.225 3.594-.009 1.598.204 2.723.214 1.124.645 2.125.43 1 1.374 1.56.944.561 1.143.645" stroke="#6dc1b3" stroke-width="1.387"/><path d="m701.356 518.704q-.322.442.552 5.27.874 4.829.941 4.878" stroke="#6dc1b3" stroke-width="1.335"/><path d="m702.122 522.682q-.099-.392-.645-3.102-.177.025.562-.169.739-.194 1.405.027.665.221.72.962.055.741-.16 1.298-.215.557-2.812 3.41-.286.053.786-.307 1.073-.36 1.75-.342.678.017 1.042.065.364.048.648.158.284.109.894.556.611.446.582.67-.028.224-.039.197-.011-.027.157.31.168.336-1.855 1.379-2.023 1.044-2.105 1.094" stroke="#6dc1b3" stroke-width="1.333"/><path d="m710.38 528.161q0 .032 0 .129-.639-.019-.465-.032-.554-.079-.659-1.827-.106-1.747.074-3.201.179-1.455.477-2.25.298-.795 1.114-.961.815-.166 1.427 2.304.611 2.469.968 4.025.356 1.555.296 2.271-.06.717-.177.767" stroke="#6dc1b3" stroke-width="1.336"/><path d="m717.38 529.649q0 .035-.098.569-.051.014-.168.029-.21.187.339-1.646.549-1.834 1.142-4.056.594-2.221.924-3.619.329-1.398 1.412-2.287.253-.142.615 2.372.361 2.515.399 4.428.037 1.912.059 2.912.022 1-.066 1.455-.088.456-.454.66-.367.205-.632-.057-.265-.262-.449-.461" stroke="#6dc1b3" stroke-width="1.366"/><path d="m717.716 525.735q0 .018.015.185.088.457 3.404.113 3.315-.345 3.55-.427" stroke="#6dc1b3" stroke-width="1.366"/><path d="m727.333 518.341q-.585-.436-.41-.302-1.208-.49-1.4.692-.193 1.182-.209 1.91-.016.729.184 1.359.201.63 1.028.814.826.185 1.073.267" stroke="#6dc1b3" stroke-width="1.319"/><path d="m731.38 516.612q.279.05.165-.019-.113-.069.263.136.377.205.926 1.313.55 1.108.911 2.462.36 1.354.473 2.612.112 1.257.12 2.614.007 1.357-1.566 3.195-1.573 1.838-1.987 2.183" stroke="#6dc1b3" stroke-width="1.356"/><path d="m738.38 510.507q0-.599 0-.545 0-.132 0-.282.393.758 1.745 2.967 1.353 2.21 1.881 4.45.528 2.241.566 4.237.037 1.996-.013 2.983-.05.988-.352 2.285-.303 1.297-1.508 3.226-1.206 1.928-1.554 2.376" stroke="#50514f" stroke-width="1.459"/><path d="m627.083 554.335q-.035-.032-.219-.1-.337.157.044 4.537.382 4.38 1.55 9.198.031 0 .064-.025.034-.025.084-.075" stroke="#50514f" stroke-width="1.492"/><path d="m626.216 557.288q-.066-.197-.141-.453-.074-.257-.083-.342-.009-.085-.01-.036-.002.048-.055-.262-.053-.309-.024-.917.449-.245 1.466.21 1.017.455 1.891 1.375.874.92 1.233 2.497.359 1.577-.739 2.53-1.097.953-1.312 1.07" stroke="#50514f" stroke-width="1.44"/><path d="m641.083 550.919q.255-.16-1.066-.75-.707.363-1.328 3.346-.621 2.983-.808 5.062-.186 2.079-.224 3.978-.037 1.9.275 3.752.311 1.853 1.772 3.266 1.461 1.414 1.809 1.613" stroke="#50514f" stroke-width="1.595"/><path d="m645.958 556.819q0-.014 0-.064-.08.27.204 3.845.283 3.575 1.12 7.22.067.015.174-.06.107-.075.189-.224" stroke="#50514f" stroke-width="1.656"/><path d="m645.56 558.647q-.061.101-.091-.518-.03-.618-.031-1.088-.002-.47.115-.544.116-.074.296-.172.179-.099.226-.096.047.003.229.016.183.012.508-.086.325-.098 1.007.403.683.502.786 1.37.104.868.033 1.402-.07.534-.353.97-.283.436-.629.822-.345.385-.971.674.398-.746.316-.484.781-.296 1.917-.158 1.137.138 1.839.62.702.482.878 1.299.177.816.182 1.339.005.523-.193.911-.198.387-.281.418-.083.031-.172.231-.089.199-.769.594-.68.395-1.205.476-.524.081-.721.122-.196.041-.322-.384-.126-.426-.141-.543" stroke="#50514f" stroke-width="1.543"/><path d="m657.505 566.475q.092-.15-.188.862-.478-.134-.182-3.539.297-3.405.398-5.532.1-2.126 1.077-3.832.112-.055.438.327.327.382 1.28 3.813.953 3.431 1.138 8.663-.031 0-.164-.015-.008-.089-.055-.327-.047-.238-.094-.42" stroke="#50514f" stroke-width="1.295"/><path d="m665.099 566.739q0 .512 0 .352-.016.032-.102.047-.084.047.156-2.663.241-2.71.411-4.279.17-1.569.313-2.521.143-.953 1.116-1.084.798.607 1.508 10.283-.117.035-.441-.007-.325-.043-.508-.128" stroke="#50514f" stroke-width="1.344"/><path d="m665.661 563.557q0-.017 0-.099.584 0 .5 0 .655.36 2.283-.26 1.627-.619 1.826-.736" stroke="#50514f" stroke-width="1.264"/><path d="m671.435 549.852q0-.032 0-.181.595-.376 1.562 1.222.967 1.598 1.334 3.843.367 2.244.487 4.9.12 2.656.015 5.111-.105 2.455-.963 4.017-.857 1.561-1.139 1.895" stroke="#50514f" stroke-width="1.507"/><path d="m681.02 560.903q-.847.519 3.286.176 4.132-.343 4.246-.41" stroke="#50514f" stroke-width="1.252"/><path d="m685.833 557.188q-.918-.606-.234 2.54.683 3.147.765 3.396" stroke="#50514f" stroke-width="1.249"/><path d="m697.778 557.089h-.015q-.074-.077-.022 2.542.052 2.62.521 4.68.469 2.061 1.29 3.659.031 0 .066 0 .217-.15-.668-2.659-.885-2.508-1.083-4.364-.197-1.855-.262-2.707-.065-.851.164-1.266.23-.415.512-.338.283.077.159-.025-.125-.103.58.193.705.295 1.275 1.37.57 1.076.691 1.771.12.695.116 1.117-.005.421-.11.597-.105.176-.666.634-.562.459-1.049.431-.487-.028-.671-.028" stroke="#50514f" stroke-width="1.276"/><path d="m708.622 552.577q.108.039-.383-.218-.491-.258-.956 1.215-.465 1.472-.598 3.011-.132 1.539-.196 3.474-.064 1.936.388 4.269.452 2.334 1.384 3.785.931 1.45 1.197 1.749" stroke="#50514f" stroke-width="1.396"/><path d="m714.2 557.751q-.593.495.307 4.768.9 4.273.982 4.355" stroke="#50514f" stroke-width="1.233"/><path d="m714.427 558.413q-.07.004-.182-.147-.113-.151 0-.497.112-.346 1.025-.575.913-.229 1.439-.26.526-.032 1.038.009.512.042.605.47.092.428-.039 1.082-.132.654-.782 1.343-.649.689-2.44 2.524.489 0 .449 0 .879-.014.633-.017.369.044.973.023.603-.022 1.208.384.605.405.892.866.287.461.41 1.274.124.813-.797 1.752-.922.938-1.796 1.365-.875.426-1.238.558" stroke="#50514f" stroke-width="1.233"/><path d="m724.583 566.973q-.012-.179.117 1.014-.428.794-.321-1.974.107-2.769.384-4.227.277-1.458.475-2.162.198-.705.486-1.035.289-.33.369-.386.081-.056.456.685.376.741.535 1.245.159.504.651 1.921.493 1.418 1.192 6.08 0-.015 0-.03" stroke="#50514f" stroke-width="1.301"/><path d="m733.372 566.177q-.204.108-.492.896-.286-.038-.005-2.512.28-2.474.604-3.623.324-1.149.537-1.87.212-.721.915-.936.182-.098.761 1.922.579 2.019.775 3.708.195 1.688.196 2.464 0 .777-.127 1.131-.126.355-.264.575-.138.22-.39.286-.252.065-.385.115" stroke="#50514f" stroke-width="1.239"/><path d="m734.005 565.18q.018-.108-.297-.626-.276.11 1.523-.094 1.799-.204 2.8-.744 1.001-.539 1.185-.657" stroke="#50514f" stroke-width="1.235"/><path d="m741.567 554.862q-.655-.343-1.225-.318-.569.026-.795.649-.227.623-.305 1.495-.078.872-.008 1.5.071.627.557 1.038.485.411 1.08.566.594.156.979-.064.385-.219.585-.383" stroke="#50514f" stroke-width="1.235"/><path d="m744.888 551.716q0-.077.015-.235.005.029.259-.009.254-.038.914 1.375.66 1.412 1.057 3.239.397 1.827.522 3.662.126 1.835.17 3.352.045 1.517-.47 3.358-.515 1.842-1.277 3.174-.761 1.333-1.657 2.242-.895.908-1.601 1.47-.706.561-1.417 1.059" stroke="#50514f" stroke-width="1.437"/><path d="m627.614 420.78q.25-.052-.828-.516-.224-.054-.101 5.426.023-.577-.021-.339-.043.238.073-.293.115-.531.182-.663" stroke="#50514f" stroke-width="1.436"/><path d="m624.528 426.815q-.306-.015-.828-.363-.164-.109.592.223.756.331 4.869-.056-.187-.736-.234-.53-.683-.375-1.54-1.455-.856-1.08-1.205-3.001-.349-1.921-.442-2.852-.092-.932.135-1.624.227-.693.644-.909.416-.216.873-.397.456-.182 1.224.052.768.234 1.459 1.155.691.922.375 8.451.386.392 4.766-.118-.02.018-.096.084-.076.066-.209.18" stroke="#50514f" stroke-width="1.44"/><path d="m619.02 425.192q.366-.674.33-1.177-.037-.503-1.248-.62-1.211-.117-2.106.01-.894.126-1.427 1.531-.532 1.404-.829 2.607-.297 1.204-.342 3.944-.046 2.74.34 5.603.386 2.864.444 6.093.058 3.228-.11 5.153-.168 1.925-.541 4.347-.372 2.422.009 6.078.382 3.656 1.73 9.783 1.348 6.128 1.43 6.277" stroke="#50514f" stroke-width="1.463"/><path d="m615.77 471.804q.086-.195.137 2.166.051 2.362.202 3.828.15 1.466.527 2.189.378.723.447 1.388.614-.191 4.135.147 3.521.337 6.376.64 2.854.303 4.48.28 1.625-.022 4.659-.039 3.033-.016 6.673.046 3.64.061 9.384.345 5.743.285 10.201.35 4.457.065 6.528.056 2.071-.009 4.054-.03 1.983-.02 3.265-.023 1.282-.002 4.279-.224 2.997-.221 3.927-.368" stroke="#50514f" stroke-width="1.477"/><path d="m642.083 421.641q-.324-.146 2.227-.073 2.55.072 8.759-.234 6.209-.306 9.999-.438 3.791-.131 5.903-.1 2.112.03 4.57.233 2.458.203 5.746.578 3.288.375 4.87.491 1.583.116 2.405.382.823.266 1.373.376.551.109.732.682.181.572.372 2.549.191 1.978.42 3.42.228 1.443.129 5.702-.1 4.26.275 9.457.375 5.198.616 8.159.241 2.96.353 4.429.111 1.47.093 3.681-.017 2.212-.181 4.194-.164 1.982.009 4.341.173 2.358.406 4.228.233 1.87.294 4.074.061 2.204.046 3.81-.015 1.606-.221 3.194.382.154-4.178-.313-4.56-.466-5.142-.648" stroke="#50514f" stroke-width="1.503"/><path d="m630.935 442.343q.102.251-.318-.281-.42-.533-.446-.923-.025-.39.181-1.076.206-.687.919-2.18.713-1.494 1.364-2.732.651-1.239 1.78-1.732.599-.233 2.16 6.685-.051.018-.15.018-.1 0-.248 0" stroke="#50514f" stroke-width="1.443"/><path d="m633.919 438.13q-.324-.267-1.43-.528.161-.121 2.164-.426 2.004-.306 2.25-.341" stroke="#50514f" stroke-width="1.443"/><path d="m625.489 442.975q-.037-.079.188-2.027-.497.007-.418.05-.192.179-.36.337-.168.158-1.344 1.273-1.175 1.115-2.02 3.217-.846 2.103-1.186 3.46-.34 1.356-.447 4.289-.106 2.933-.123 5.021-.016 2.089.546 4.421.562 2.333 1.61 4.565 1.048 2.231 2.817 3.784 1.768 1.552 2.3 1.968" stroke="#50514f" stroke-width="1.421"/><path d="m643.044 436.706q.108-.46.082-.334-.043-.06.009-.101.052-.04.025-.006-.026.035.117-.083.143-.118.784-.224.642-.106.406-.084-.235.021 1.877-.125 2.112-.146 3.63-.125 1.518.021 2.717.374 1.199.352 1.807.653.608.3 1.812 1.916 1.205 1.616 2.534 3.408 1.329 1.792 2.144 2.644.815.852 1.602 2.686.787 1.834 1.145 2.976.357 1.143.518 1.97.161.827.37 1.754.209.927.404 2.577.195 1.651.318 2.447.124.796.117 2.625-.006 1.829-.568 3.819-.562 1.991-1.431 3.751-.868 1.76-1.652 3.17-.784 1.409-3.125 2.832-2.341 1.423-2.775 1.622" stroke="#50514f" stroke-width="1.424"/><path d="m626.286 472.835q-.016 0-.164 0-.313-.071 2.17 1.335 2.483 1.406 3.97 2.348 1.488.941 2.845 1.376 1.358.434 2.52.844 1.161.409 6.779.726 5.618.317 6.068.367" stroke="#50514f" stroke-width="1.384"/><path d="m667.794 433.155q-.974.268.742 6.305.035 0 .068-.034.034-.034.081-.101" stroke="#50514f" stroke-width="1.34"/><path d="m667.927 434.052q-.06-.081-.154-.315-.093-.235-.234-.587-.141-.352-.181-.582-.04-.231.683-.392.723-.161 1.36-.193.638-.032.952.642.315.673-.001 1.485-.316.812-3.253 2.725-.271.173.871-.098 1.142-.271 1.95-.323.808-.051 1.257.045.448.096.556.334.107.238.001.694-.105.455-1.276 1.237-1.172.783-1.469.964" stroke="#50514f" stroke-width="1.34"/><path d="m660.192 437.532q.1-.258.071-.246 0-.05-.016-.267-.201-.3-1.953 1.418-1.753 1.719-2.912 2.784-1.16 1.066-1.784 1.839-.624.773-1.081 1.352-.458.58-.947 1.189-.489.609-.746.771-.257.162-1.592 1.677-1.334 1.514-2.03 2.737-.696 1.222-1.123 1.861-.428.638-1.023 2.886-.596 2.248-.752 4.232-.156 1.983-.136 3.052.02 1.069.338 2.754.318 1.685.611 3.083.293 1.399 1.499 3.277 1.206 1.878 1.827 2.949.621 1.071 1.185 1.532.563.461 1.077.797.514.337.751.468.237.132.436.322.198.19 1.178.86.979.67 1.638 1.016.658.346 1.107.525.45.18.777.256.326.076 2.273.638 1.947.563 4.988 1.539 3.042.975 5.39 1.16 2.348.186 2.793.221" stroke="#50514f" stroke-width="1.399"/><path d="m673.895 438.727q0-.017-.031-.334.522 0 .496 0 .528.193.355.041-.173-.151.552.226.726.376 1.201.817.475.44 1.018.826.543.385 2.116 2.33 1.573 1.946 2.583 3.787 1.01 1.841 1.674 2.949.664 1.107.875 2.34.212 1.232.483 3.41.272 2.177.332 4.052.06 1.874-.102 4.025-.162 2.151-.946 4.463-.785 2.311-1.806 3.779-1.021 1.469-1.59 2.135-.569.665-.808.972-.24.306-.643.619-.404.313-1.901 1.565-1.497 1.252-2.885 2.222-1.389.97-2.378 1.327-.989.357-1.538.563-.549.207-.982.382-.432.174-1.44.574-1.009.399-2.234.28-1.225-.119-1.557-.318" stroke="#50514f" stroke-width="1.51"/><path d="m647.817 458.333q.116.006-.051-.058-.167-.065-.325.98-.158 1.045-.141 1.878.017.834.115 1.723.098.889.51 1.004.412.115.494.051" stroke="#6dc1b3" stroke-width="1.259"/><path d="m647.552 458.901q-.089-.192.004-.999.072-.344 1.808.117.273.216.03.863-.242.648-.528.96-.286.312-.314.352-.029.039-.05.087-.021.047-.614.442.258-.618 1.056-.605.799.014.82.035.02.02.201.048.18.028.434.399.253.371.294.691.041.319-.061.53-.102.212-.316.405-.214.193-.571.414-.358.222-.482.267-.125.045-.331.131-.206.086-.233.082-.027-.005-.238.109-.21.114-.276.114" stroke="#6dc1b3" stroke-width="1.259"/><path d="m653.13 463.811q0-.025 0 .2.087-.05-.099-1.546-.186-1.495-.157-2.632.029-1.137.134-1.693.105-.557.431-.67.326-.113.455-.072.13.041.287.328.157.287.34.646.183.359.734 5.07.015 0 .056-.016.041-.016.108-.048" stroke="#6dc1b3" stroke-width="1.248"/><path d="m657.411 462.88q0 .673 0 .48v.018q-.277-.008.461-6.173.141.001.306.04.164.038.103.114-.061.076.021.113.081.037.717 1.768.636 1.73.544 3.906-.066.033-.132.057-.067.025-.168.075" stroke="#6dc1b3" stroke-width="1.248"/><path d="m657.544 460.923q-.051-.018-.234-.235.922 0 .66 0 .27 0 .949.052.68.051.844.118" stroke="#6dc1b3" stroke-width="1.248"/><path d="m668.974 458.43q.077-.004-.235-.146-.461.115.696 7.611.019-.032.039-.064" stroke="#6dc1b3" stroke-width="1.241"/><path d="m668.606 459.497q-.036-.038-.164-1.497-.37-.313 1.973.032.129.136.139 1.024.01.887-1.651 3.025-.095.01.004.027.1.017.745-.123.646-.14 1.152.113.505.252.876.743.371.492.412.997.04.506-.535.97-.574.464-1.019.506-.445.042-.647-.251-.203-.293-.253-.457" stroke="#6dc1b3" stroke-width="1.241"/><path d="m675.013 464.471q.01.011.164.334-.22-.309-.147-.088.072.221-.243-.481-.315-.703-.455-1.541-.14-.838-.146-1.819-.006-.981.079-1.62.086-.639.186-.681.101-.042.02.007-.08.05.204-.225.284-.275.831.312.548.588.853 1.983.306 1.395.373 2.499.067 1.104.038 1.619.032-.017.063-.035" stroke="#6dc1b3" stroke-width="1.241"/><path d="m678.825 463.909q0 .032 0 .129-.015 0-.031 0 0-.908 0-.645.027-.372-.026-1.901-.052-1.529 1.233-3.489-.054.005.081-.02.135-.024.685 3.141.55 3.166.55 3.183" stroke="#6dc1b3" stroke-width="1.241"/><path d="m678.692 462.35q-.015 0-.062 0 .516-.001.512-.017.3-.046 1.195-.148.894-.101 1.043-.133" stroke="#6dc1b3" stroke-width="1.241"/><path d="m682.214 453.765q0-.015-.067-.381.204.007-.307-.078-.512-.084-.879.15-.368.234-.521.776-.154.543-.081 1.422.072.879.938.849.866-.031 1.081-.013" stroke="#6dc1b3" stroke-width="1.361"/><path d="m606.963 591.843q-.639-.068-.508-.057.131.011-.006-.014-.333-.116 3.586-.177 3.92-.06 4.048-.041" stroke="#50514f" stroke-width="1.391"/><path d="m608.52 594.096q-.337 0-.325 0h-.034q-.232.523 2.8.507 3.033-.016 3.268 0" stroke="#50514f" stroke-width="1.391"/><path d="m626.22 591.368q-.522-.058.984 10.508 0-.019-.045-.12-.045-.101-.135-.284" stroke="#50514f" stroke-width="1.445"/><path d="m624.115 592.966q.105.028-.024-.638-.128-.666-.02-1.393.109-.726 1.003-.867.893-.142 1.721-.173.827-.031 1.829.504 1.002.535 1.281 1.479.28.944.273 1.682-.007.738-1.1 1.756-1.092 1.018-2.392.817-1.301-.201-1.408-.329" stroke="#50514f" stroke-width="1.364"/><path d="m638.031 588.678q-.453-.432-1.034-.471-.581-.039-1.498 1.38-.918 1.419-1.159 3.733-.242 2.315-.173 3.74.069 1.426.211 2.173.141.747 1.137 2.117.995 1.369 2.492 1.72 1.496.35 1.95.404" stroke="#50514f" stroke-width="1.498"/><path d="m641.849 593.839q-.018-.035-.069-.109-.114.239-.316 2.911-.203 2.672.748 5.704.056 0 .129-.082.072-.082.166-.246" stroke="#50514f" stroke-width="1.453"/><path d="m641.087 596.022q-.074-.453-.272-1.176-.198-.724-.226-1.433-.029-.709-.047-.915-.018-.205.864-.451.883-.246 1.781-.281.898-.036 1.397.43.5.466.519.865.02.399.243 1.37.222.972-3.532 3.446.421-.821.364-.568.477-.294 1.668-.468 1.192-.174 1.855-.006.663.169.567 1.05-.096.882-1.491 1.761-1.396.88-2.361.998-.966.118-1.072.064" stroke="#50514f" stroke-width="1.39"/><path d="m649.919 585.372q-.094-.093.321 6.049.415 6.143.861 17.574.128.019.239.038" stroke="#50514f" stroke-width="1.456"/><path d="m653.591 600.162q0 .026 0 1.239-.05-.009.548-2.357.597-2.348.87-3.732.273-1.385.489-2.052.217-.668 1.016-1.019.388.405.509.797.121.391.212.681.091.29.237.804.145.514.55 1.436.405.922.221 5.426-.072.204-.627.009-.554-.195-.721-.359" stroke="#50514f" stroke-width="1.472"/><path d="m655.003 597.62q0 .035.039.273-.348-.035 1.661.117 2.009.153 2.947-.281.938-.433 1.173-.577" stroke="#50514f" stroke-width="1.472"/><path d="m660.858 588.864q.876-.502.637-.295.513-.006 1.906 1.44 1.393 1.446 2.014 3.378.621 1.932.761 3.489.14 1.558-.496 3.685-.637 2.128-2.1 3.591-1.464 1.463-1.918 1.826" stroke="#50514f" stroke-width="1.4"/><path d="m670.819 592.673q-.053-.037-.411-.113-.159 1.447-.155 1.284.004-.164.004 3.034 0 3.197.306 6.856-.229-.114-.473-3.195-.245-3.082-.265-4.787-.021-1.705-.022-2.341-.002-.635.279-1.32.28-.685.697-.745.418-.06.642-.027.224.033.394-.015.171-.047.756.169.586.217.949 1.174.364.957.355 1.633-.009.675-.024 1.079-.015.404-.085.691-.07.287-.586.765-.516.478-.895.677-.379.199-.655.284-.277.086-.42-.081-.142-.166-.24-.319" stroke="#50514f" stroke-width="1.316"/><path d="m678.756 590.307q-.884-.711-.615-.418-.282-.141-.955 2.867-.673 3.008-.744 4.933-.071 1.926.118 3.108.189 1.181.555 1.666.366.484.516.633" stroke="#50514f" stroke-width="1.584"/><path d="m680.262 601.668q-.784-.27-.522-.322-.709-.343 2.143-9.554.479-.193 1.431 9.893-.173.016-.399.008-.226-.008-.394-.025" stroke="#50514f" stroke-width="1.316"/><path d="m680.191 598.884q-.04 0-.115 0-.359.349 1.984-.166 2.343-.515 2.605-.664" stroke="#50514f" stroke-width="1.316"/><path d="m685.302 589.59q-.035-.093-.106-.412.865.381 1.714 2.52.848 2.139 1.072 3.94.223 1.802-.038 3.573-.261 1.772-1.017 2.828-.756 1.057-1.093 1.509" stroke="#50514f" stroke-width="1.476"/><path d="m693.656 595.569q-.111-.016-.904-.186.493-.028 4.377.034 3.883.062 3.941.119" stroke="#50514f" stroke-width="1.262"/><path d="m697.341 593.051q-.082-.084-.939-.282-.136.872-.08.791-.226.35.292 2.517.518 2.166.611 2.316" stroke="#50514f" stroke-width="1.262"/><path d="m707.421 592.115q0-.02 0-.08.012-.113.048 3.21.036 3.324 1.706 7.738.083.084.059-.212-.023-.296-.041-.538" stroke="#50514f" stroke-width="1.277"/><path d="m707.386 596.021q-.612-.911-.62-3.777.454-.256 1.753-.345 1.299-.089 2.144.366.845.455.982 1.3.137.845.069 1.642-.068.798-1.209 1.761-1.14.964-1.886 1.09-.746.125-.897.182" stroke="#50514f" stroke-width="1.277"/><path d="m717.652 589.178q-.055.109-.552-.046-.497-.156-1.131.576-.633.732-.912 3.268-.279 2.537-.278 4.113.001 1.576.342 2.902.341 1.325 1.56 1.989 1.219.665 1.538.778" stroke="#50514f" stroke-width="1.278"/><path d="m722.285 592.978q0-.056 0-.153-.022 0-.044 0-.05-.041.077 3.355.126 3.396.757 5.081.632 1.686.707 1.762" stroke="#50514f" stroke-width="1.33"/><path d="m722.887 595.124q.023-.036-.02.018-.042.053-.152-1.848.004-.121 1.121-.326 1.118-.206 1.821-.162.704.045 1.04.311.336.267.466 1.045.131.779-.81 1.879-.94 1.1-3.209 2.425.246-.096.591-.234.344-.139.336-.115-.007.024.014.005.021-.02 1.074-.161 1.054-.142 1.844-.106.791.037 1.32.646.529.61.233 1.392-.297.783-1.498 1.569-1.201.787-2.227.525-1.027-.263-1.155-.432" stroke="#50514f" stroke-width="1.33"/><path d="m731.117 588.613q-.036 0-.24 0-.392-.031.604 9.399.995 9.429 1.106 9.522" stroke="#50514f" stroke-width="1.34"/><path d="m736.458 604.977q-.018 0-.275-.037-.104-.605-.062-.528-.405-.618 1.263-10.098.77-1.098 2.502 9.517-.096.449-.894.017-.798-.433-.984-.639" stroke="#50514f" stroke-width="1.236"/><path d="m736.609 600.499q.662-.056.567-.033 1.134-.063.85-.06-.144.269 1.394-.261 1.538-.53 1.742-.663" stroke="#50514f" stroke-width="1.236"/><path d="m743.801 591.663q-.675-.297-.589-.21-.605-.028-.505-.016-.608.328-.804 1.578-.195 1.25.373 2.251.568 1.001 1.306 1.086.738.085 1.22-.095.483-.18.727-.349" stroke="#50514f" stroke-width="1.265"/><path d="m747.291 588.201q-.053 0-.256.017.019.881.035.698.362.476 1.343 3.073.981 2.597 1.121 4.435.14 1.838.489 3.184.349 1.346-1.714 3.056-2.063 1.711-2.515 2.014" stroke="#50514f" stroke-width="1.278"/><path d="m755.228 593.124q-.057-.303-.203-.299-.081.538-.16 3.466-.079 2.929.665 8.387.12.027-.476-3.031-.595-3.058-.579-4.851.016-1.793-.05-2.413-.066-.62.143-1.082.21-.462 1.013-.567.803-.106.987-.045.184.06.66.503.476.443.656 1.392.181.949.119 1.769-.062.819-.748 1.678-.686.858-1.987.813-.23-.852-.146-.637 0-.21-.011-.332-.011-.123-.033-.273" stroke="#50514f" stroke-width="1.248"/><path d="m765.087 590.905q0-.695-.017-.524.144-.128-.352.004-.495.132-1.309 2.928-.813 2.796-1.066 5.009-.252 2.212-.22 3.378.032 1.166.373 1.633.341.466.458.705.117.239 1.163.165 1.046-.074 1.272-.243" stroke="#50514f" stroke-width="1.572"/><path d="m767.16 602.758q.106-.055-.717.299-.108.22.868-2.065.976-2.285 1.412-4.088.435-1.802 1.48-3.102.432.365.545 12.716-.252.011-.343-.136-.091-.147-.242-.356" stroke="#50514f" stroke-width="1.248"/><path d="m767.311 599.11q-.252.545-.151.429-.015.029.351.18.366.152.354.077-.012-.075-.048-.018-.035.058 1.44.121 1.475.063 2.548-.448 1.073-.51 1.299-.68" stroke="#50514f" stroke-width="1.248"/><path d="m776.072 593.35q.02-.1-.103-.217-.123-.118-.492-.306-.37-.188-.227-.119.143.069-.379-.088-.523-.157-.821.943-.299 1.099-.26 2.084.039.985.424 1.666.386.681 1.044.88.658.199 1.245-.158.587-.356.888-.579" stroke="#50514f" stroke-width="1.234"/><path d="m780.695 589.218q-.075-.057-.336-.452.28.146 1.176 2.144.896 1.997 1.152 3.936.256 1.939.362 3.335.106 1.396-.447 3.331-.553 1.934-3.334 4.251-2.78 2.316-3.684 2.861" stroke="#50514f" stroke-width="1.237"/><path d="m617.849 609.365q.081.018.211.036.114.684.002.494-.113-.189.173.22.286.409.213.36-.073-.048.769.06.841.108 1.231.163.389.056 1.254-.391.864-.447 1.867-1.273 1.003-.827 2.041-1.281 1.039-.455 2.439.287 1.401.742 2.412 1.362 1.01.621 1.601.635.591.014 1.109.036.519.022 1.166-.637.647-.659.956-.876.31-.218.506-.63.196-.413 2.156-.113 1.96.3 2.98.767 1.019.468 1.832.362.814-.106 1.987-.508 1.173-.403 2.056-.393.884.009 1.798.746.914.738 1.851.981.936.243 1.474.267.538.023 1.213-.08.674-.102 1.579-.906.906-.805 1.592-1.155.687-.35 1.184-.456.498-.106 1.476.788.978.895 1.626 1.18.649.284 1.417.461.769.177 2.028-.266 1.259-.443 2.045-1.046.785-.603 2.997-.461 2.212.142 3.831.452 1.619.31 2.149.274.53-.036 1.301-.178.77-.141 2.235-.257 1.465-.116 2.211-.044.747.071 1.177.193.431.121.84.223.409.102.873.153.463.05.847.058.383.007.547 0 .164-.007.088.009-.076.016.246-.094.322-.11 1.217.064.896.175 1.404-.044.508-.218.714-.441" stroke="#ffe15c" stroke-width="1.702"/><path d="m333.704 521.986q0 0-.208.019-.208.019.3-.11.507-.128.444-.159-.064-.03.063-.065.128-.034.539-.885.411-.85 2.787-3.541 2.377-2.69 3.677-4.037 1.3-1.348 5.757-5.775 4.456-4.427 6.729-6.702 2.273-2.275 3.195-3.193.921-.919 2.782-2.873 1.862-1.954 4.15-4.693 2.289-2.74 4.054-4.696 1.765-1.956 4.303-4.199 2.537-2.244 6.522-5.871 3.984-3.628 6.372-5.775 2.388-2.146 3.759-3.401 1.371-1.254 2.276-1.926.906-.672 1.441-1.034.535-.362.414-.295-.121.067-.023.008.098-.059.27-.016.172.043.407-.067.236-.11.356-.189" stroke="#ffe15c" stroke-width="2.336"/><path d="m395.374 463.445q-.925.001-.652.001-.082 0-.201-.062 0-.763 0-.55.471-1.019.325-.65.373-.357.346-.306.351-.243 1.412-.314 1.06-.071 4.812-1.73 3.752-1.66 6.153-2.43 2.4-.77 3.655-1.253 1.255-.484 8.45-2.436 7.196-1.952 11.44-2.799 4.245-.847 6.419-1.338 2.174-.491 4.015-.844 1.841-.352 6.047-1.244 4.205-.891 7.537-2.061 3.332-1.169 5.138-2.067 1.805-.899 2.593-1.087.788-.189 1.39-.284-.225.043-.451.086" stroke="#ffe15c" stroke-width="3.972"/><path d="m333.656 521.296q.182.014-1.256-.267.556-.2.465-.143.093.21.981 1.055.887.845 2.804 2.701 1.917 1.855 3.898 3.139 1.982 1.284 4.124 2.72 2.142 1.437 4.525 2.876 2.382 1.44 7.584 4.079 5.201 2.638 8.127 4.287 2.926 1.648 4.772 2.763 1.846 1.116 3.961 2.888 2.115 1.773 3.236 3.087 1.121 1.314 2.34 2.838 1.22 1.524 2.847 3.467 1.627 1.943 3.49 2.643 1.863.699 1.882.699" stroke="#ffe15c" stroke-width="4.144"/><path d="m392.852 562.041q-.435-.135-.572-.335-.138-.201-.058-.213.079-.013-.041-.086-.121-.073-.104-.642.017-.57.199-1.372.181-.802.15-1.126-.031-.323.035-.583.065-.26.003-.183-.063.076.435-.476.497-.553 1.464-1.11.968-.557 4.053-1.633 3.086-1.075 6.061-1.92 2.975-.845 5.637-1.451 2.662-.605 7.302-1.828 4.64-1.223 12.878-2.878 8.239-1.654 16.557-2.91 8.319-1.255 12.913-2.041 4.594-.786 8.075-1.642 3.48-.855 6.6-1.569 3.119-.715 7.036-2.012.125.324.206.608" stroke="#ffe15c" stroke-width="2.576"/><path d="m710.138 609.997q-.165-.416-.738-1.991-.365-.397.541.288.906.685 1.441 1.147.535.463.716.57.18.107.728.348.548.24 1.479.226.931-.015 1.407-.131.475-.116.973-.468.497-.352 1.198-.78.701-.428.976-.689.274-.262 1.22-.409.946-.148 1.789.251.842.398 1.283.7.441.303 1.781 1.075 1.339.772 3.513.359 2.174-.414 3.733-.8 1.559-.387 3.835.084 2.275.472 3.721.66 1.446.189 2.998.352 1.552.164 2.76-.689 1.208-.852 1.72-1.437.513-.585 1.464-.702.951-.116 1.56.005.609.121 1.787.657 1.178.536 4.084.368 2.906-.168 4.403-.24 1.496-.073 2.202-.154.706-.081 1.276.199.57.28 1.191.955.621.674.878 1.042.257.367.402.497.146.131.266.355.121.224.846.736.725.512 1.67.655.945.144 2.211-.708 1.267-.852 2.993-1.254 1.725-.401 3.806-.43 2.081-.029 4.359.355 2.278.384 3.525.383 1.247-.001 1.386-.205" stroke="#ffe15c" stroke-width="1.706"/><path d="m472.229 420.946q.242.06-.285-.072-.527-.131-1.855 2.262-1.327 2.393-2.167 4.582-.84 2.19-1.148 4.789.055-.456.212-.745.158-.289.378-.68.22-.39.489-.755.268-.365.474-.588" stroke="#ffe15c" stroke-width="1.67"/><path d="m469.957 431.486q-.286.244-1.177.69-.89.445-1.476.662-.585.218-1.365.22-.78.002-1.526-.218-.747-.221-1.673-1.066-.926-.846-1.252-2.499-.325-1.653-.298-3.096.027-1.442.943-3.125.917-1.684 2.133-3.023 1.217-1.339 2.92-2.007 1.704-.668 3.179-.629 1.474.039 2.132.134.657.095 1.839.91 1.183.814 1.806 2.457.623 1.643.735 3.25.113 1.607-.533 3.449-.646 1.842-3.528 3.663-2.883 1.821-3.434 2.105" stroke="#ffe15c" stroke-width="1.375"/><path d="m660.998 615.656q-.691-.538-.485-.306-.604-.481-2.832 6.288-.02 0-.058-.018.011-.786.038-.59.157-.152.395-.268.238-.116.382-.217" stroke="#ffe15c" stroke-width="1.523"/><path d="m660.557 621.357q.481.41-.492.805-.973.396-1.671.547-.699.15-1.129.199-.429.049-1.257-.534-.828-.583-.846-1.986-.018-1.402-.139-2.535-.121-1.133.506-2.518.627-1.384 2.729-2.102 2.102-.718 3.321-.794 1.22-.076 2.478.318 1.257.394 2.047 1.103.789.71 1.138 1.463.349.753.568 1.549.218.795-.453 2.112-.67 1.316-2.638 2.506-1.968 1.189-3.676 1.179-1.709-.01-1.953-.211" stroke="#ffe15c" stroke-width="1.317"/><path d="m489.456 528.457q-.512.169-.82-1.73-.343.141.453-.09.795-.231 1.497-.194.702.037 1.106.505.404.468.547 1.214.143.746.042 1.233-.102.487-.14.841-.039.353-1.471 1.734-1.432 1.38-3.534 1.743 1.05.002 3.706-1.031 2.655-1.032 4.225-.664 1.569.368 1.752.508" stroke="#ffe15c" stroke-width="1.35"/><path d="m493.156 538.472q-.201.006-1.957-.003-1.756-.009-2.831-.01-1.075-.002-2.597-.494-1.522-.492-1.838-2.929-.317-2.437-.326-4.287-.01-1.851.401-3.519.411-1.668 1.45-2.986 1.039-1.318 2.389-2.225 1.35-.907 3.136-1.239 1.785-.331 3.192-.257 1.406.073 2.954 1.315 1.548 1.242 2.265 3.345.718 2.103.894 3.784.177 1.681-.009 3.806-.185 2.125-2.88 4.523-2.694 2.398-3.303 2.808" stroke="#ffe15c" stroke-width="1.317"/><path d="m745.877 619.891q-.243.109-1.179-1.406.576-.392 2.035-.54 1.458-.148 2.448.195.991.344 1.006 1.433.015 1.09-1.848 2.5-1.863 1.409-5.022 2.297 1.068-.585.834-.428.454-.7 4.196-.972 3.742-.272 3.924-.189" stroke="#ffe15c" stroke-width="1.463"/><path d="m751.044 627.749q-.457-.168-2.185.06-1.729.229-3.351-.485-1.622-.714-2.537-1.761-.914-1.047-1.5-1.853-.586-.806-1.052-2.929-.466-2.123-.378-3.571.087-1.448.754-2.559.667-1.11 2.213-1.672 1.546-.562 3.403-.59 1.857-.028 3.207.286 1.351.313 2.573 1.206 1.223.893 1.795 2.031.572 1.137.692 2.572.121 1.435.222 2.565.101 1.129-1.477 2.484-1.578 1.354-3.625 2.113-2.047.759-2.656.96" stroke="#ffe15c" stroke-width="1.425"/><g stroke="#50514f"><path d="m415.833 716.039q-.438 0-.412 0-.059 0-.128 0-.019.021 2.592-.122 2.611-.144 5.161-.18 2.55-.036 4.381.164 1.832.201 2.126.307" stroke-width="1.537"/><path d="m417.423 718.041q.212.015-1.041.269v.018q-.603.055 2.466-.017 3.068-.073 5.137.095 2.069.167 3.167.386 1.097.219 1.801.213.703-.007.806-.088" stroke-width="1.677"/><path d="m417.256 713.249q.085-.039.579-.751-.004.155-4.976 4.56 1.344.956 4.848 2.197 3.504 1.241 3.671 1.281" stroke-width="1.628"/><path d="m425.048 712.874q-.286-.235-.5-.464-.201-.21 7.959 2.731-.306.796-.309.585-.091-.048-1.181.951-1.09.998-1.934 1.739-.844.741-.805 1.087.039.345.019.408" stroke-width="1.513"/><path d="m447.425 713.124q-.001-.857-.02-.773-.019-.165-.019-.316-.172.697 1.482 13.337h.019q.397-.101-.314-3.444-.71-3.343-1.563-5.421-.852-2.079-.439-3.928.536-.158 1.869-.115 1.333.044 2.384.425 1.051.382 1.403.95.352.567.475.976.122.409-.011 1.365-.134.957-1.738 2.257-1.603 1.299-3.984 1.371-.045-.126-.074-.271-.03-.145-.088-.333" stroke-width="1.505"/><path d="m459.722 709.539q.006-.116-.957-.316-.614.409-1.259 3.844-.645 3.434-.614 5.723.03 2.289.552 3.958.521 1.67 1.37 1.878.849.209 1.036.209" stroke-width="1.584"/><path d="m461.763 723.083q-.029.096-.461.456-.715.243 2.316-11.107 1.295.211 2.125 11.126-.372.804-1.508.006-1.137-.797-1.343-1.026" stroke-width="1.484"/><path d="m461.97 721.206q-.064-.087-.413-.303-.348-.216-.296-.164.052.052-.018-.181-1.348.302 2.557-.524 3.906-.826 4.137-.992" stroke-width="1.484"/><path d="m469.144 714.743q-.006-.365.078-.537-.045.195.263 3.404.308 3.208.555 5.112.247 1.903.183 1.944" stroke-width="1.571"/><path d="m469.644 716.414q-.2.539.476-2.874 1.913-.438 2.282 1.677.369 2.114-.927 4.362-.064 0-.211 0 .011.162-.027-.292-.039-.453.179-.81.217-.356.793-.532.576-.176 1.246-.261.67-.084 1.257.15.588.235.876.667.288.432.309.711.021.278.085.675.064.397-.128.777-.193.38-1.006 1.145-.813.766-2.136 1.039-1.322.274-1.895.086-.573-.189-.853-.748-.28-.56-.408-.811" stroke-width="1.571"/><path d="m475.346 710.121q-.009.066.025-.438.541-.104.54-.063.51.155 1.915 1.287 1.404 1.133 2.416 2.742 1.012 1.609 1.361 3.313.349 1.704.122 3.24-.228 1.535-1.024 2.703-.795 1.167-1.755 1.842-.96.675-1.494.713-.535.037-.682.037" stroke-width="1.471"/><path d="m486.809 714.832q-.382.026-1.079-.295-.066 0 2.978.021 3.043.02 3.185.06" stroke-width="1.51"/><path d="m486.23 716.996q-.118.14-.255.43-.138.289-.146.193-.008-.096.26.041.269.137 3.589-.159 3.319-.295 3.589-.461" stroke-width="1.51"/><path d="m500.019 712.999q0-.107 0-.375.267 1.207.231 1.037.359 1.62 1.477 9.172.162.032-.707-2.027-.868-2.059-1.076-3.896-.208-1.837-.259-2.936-.051-1.1.341-1.641.392-.541 1.366-.64.974-.1 1.763.201.789.3 1.345.977.557.678.741 1.791.185 1.114-.589 2.176-.774 1.062-4.755 1.306-.064-.21-.074-.491-.01-.282-.01-.488" stroke-width="1.481"/><path d="m511.07 710.997q0-.288-.127-.67-1.054.639-1.687 3.246-.634 2.608-.753 4.44-.12 1.831.207 2.959.327 1.128 1.11 1.813.784.684 1.537.615.754-.07.96-.155" stroke-width="1.484"/><path d="m515.281 720.374q-.018.042-.267.218-.249.176-.734.489-.135.22 2.37-9.127.489 1.271.48 1.005-.009-.266 1.527 9.164-.167.443-.795-.248-.628-.691-.795-.963" stroke-width="1.47"/><path d="m515.565 718.372q-.12 0-.373 0-.109.826 2.584.538 2.691-.287 2.922-.494" stroke-width="1.47"/><path d="m521.316 710.541q0-.023 0-.17.459.267 1.546 2.119 1.086 1.853 1.884 3.918.797 2.065-1.189 3.953-1.985 1.887-2.486 2.258" stroke-width="1.505"/><path d="m529.276 713.374q0-.169-.098-1.001h-.02q-.031-.194.036 2.192.067 2.387 1.878 7.642.042.009-.156-.371-.198-.38-.345-.63" stroke-width="1.444"/><path d="m529.403 716.62q-.321-.408-.142-4.604.821-.276 1.612-.099.791.176 1.577.988.785.811.947 1.415.163.605.166 1.144.004.54-.008.454-.011-.087-.25.481-.239.568-4.736 1.245-.123-.17-.206-.317" stroke-width="1.444"/><path d="m538.491 710.953q0-.063-.019-.295-.506-.002-.828 2.798-.323 2.801-.351 4.425-.029 1.625.318 2.861.347 1.236.895 1.809.548.572.832.775.285.202.548.27.263.069.85-.025.587-.094.837-.238" stroke-width="1.483"/><path d="m543.241 712.454q-.166 0-.75.085-.161.459-.155 1.801.006 1.343.086 2.087.08.744.28 1.444.2.701.484 1.544.285.842 1.037 2.586.039 0 .078 0-.009.064.037-.135.047-.2.111-.41" stroke-width="1.46"/><path d="m543.32 714.618q-.201-.014-.142-2.079.071-.004.665-.154.595-.149 1.155-.189.561-.04.923.402.363.441.328.328-.035-.114.44 1.06.475 1.174-3.614 4.011.778-.661.692-.537-.085.125-.042.04.043-.085.766-.332.722-.247 1.384-.285.661-.039.887.095.226.134.428.417.202.283.184.499-.018.216-.022.137-.004-.079.23.362.233.442-2.633 2.607 0-.044-.01-.169-.009-.125-.029-.331" stroke-width="1.46"/><path d="m549.739 709.915q-.02-.022-.167-.125.287.513 1.468 1.788 1.182 1.274 1.742 2.824.559 1.55.838 3.13.278 1.581-.749 3.552-1.028 1.97-2.193 2.879-1.165.909-1.813 1.409" stroke-width="1.465"/><path d="m415.322 738.17q.253 0-1.992 0-.108.061 10.396.147 10.504.085 10.607.148" stroke-width="1.465"/><path d="m415.038 742.425q-.384.027-.589-.339-1.091-.257 7.397.153 8.487.41 8.571.473" stroke-width="1.524"/><path d="m416.746 736.632q.403-.017.961-.795-.098-.954-6.134 5.207-.099.363 3.343 1.02 3.441.657 5.364 1.435 1.922.777 2.089.884" stroke-width="1.529"/><path d="m424.832 736.168v.022q.258.038-.922.022-.352.16 1.7.481 2.052.32 3.288.485 1.235.165 1.687.376.453.211.704.425.251.214.271.289.02.076-.048.055-.068-.021.106-.018.174.002.12.538-.054.536-.446.96-.392.424-1.64 1.388-1.247.964-2.099 1.64-.851.676-1.14.882" stroke-width="1.59"/><path d="m446.63 737.589q-.05-.266-.211-.295-.341.923-.439 4.492-.097 3.569 1.023 7.513.361-.236.367-.744.006-.507.045-.757" stroke-width="1.478"/><path d="m446.414 742.925q-.284-.295-1.457-5.252.434-.03 1.888-.158 1.455-.128 2.275.137.82.265 1.324.867.504.601.461 1.016-.042.414-.078.815-.036.4-1.094 1.057-1.057.658-1.892 1.014-.835.356-2.34 1.086 0 .062 0 .081.187.062.373.125" stroke-width="1.478"/><path d="m460.458 735.005q.299.156-.371-.02-.67-.176-1.208-.159-.538.017-.717.074-.18.057-1.131 1.398-.951 1.342-1.328 3.557-.377 2.216-.428 3.572-.052 1.357.339 2.539.391 1.182 1.432 1.516 1.042.334 1.332.397" stroke-width="1.674"/><path d="m464.129 738.251q0-.04 0-.206-.511-.083.981 9.797.039 0 .123-.022.04-1.125.041-.857.001.268-.049-.343-.051-.611-.134-.861" stroke-width="1.435"/><path d="m464.551 740.091q.132-.042-.213-.322-.346-.281-.271-.235.075.046.061 0-.015-.045-.082-.321-.067-.275.176-.543.243-.267.741-.485.497-.218 1.874-.225.33.157-.073 1.759-.403 1.602-2.841 3.118-.292.095 1.207-.059 1.5-.154 2.298-.015.798.138 1.483.781.684.642.705 1.482.02.839-.064 1.153-.084.313-.436.823-.353.51-.82.73-.466.221-1.423.32-.956.098-1.746.013-.79-.085-1.115-.35-.324-.266-.45-.434-.126-.168-.127-.118 0 .049-.112-.387-.112-.436-.156-.605" stroke-width="1.435"/><path d="m473.757 736.543q.115.025-.19-.222-.304-.247-.868-.406-.563-.16-1.267.047-.703.206-.837.919-.134.713-.224 1.429-.091.715 1.125.987 1.215.272 1.466.294" stroke-width="1.435"/><path d="m476.72 731.671q-.024-.103-.191-.545-.382.608.3 5.964.683 5.356 1.168 9.097.485 3.74.279 5.217-.206 1.476-.348 1.686" stroke-width="1.435"/><path d="m482.678 747.091q.004-.336-.02.604-.205.065-.422.059-.033-1.14-.02-.81.209-.305 1.482-8.045.615-.056 2.856 9.731-.86-.147-.672-.206-.057-.061-1.017-1.032-.961-.971-1.186-1.221" stroke-width="1.401"/><path d="m482.383 744.544q-.337-.609-.289-.603-.074-.088-.147-.663.787-.037.731-.022.697.472 4.233-.182 3.535-.653 3.765-.819" stroke-width="1.401"/><path d="m491.098 736.507q0-.023.02-.339-.1.079.048-.08.147-.159 1.284 1.258 1.137 1.418 2.03 3.272.894 1.854 1.312 3.458.418 1.603.519 2.849.101 1.245-.384 2.225-.484.98-1.031 1.481-.546.5-1.108.852-.562.353-1.233.658-.672.305-1.172.493" stroke-width="1.401"/><path d="m502.306 740.629q-.271-.006-.314-.081h-.019q.701.046 3.518-.165 2.817-.211 2.939-.255" stroke-width="1.403"/><path d="m503.553 742.881q-.04 0-.285-.103 0-.044 0-.125.507-.038 2.803-.072 2.295-.035 2.693-.12" stroke-width="1.403"/><path d="m515.349 737.544q-.47.556-.349 3.603.122 3.047.449 5.086.327 2.039.646 3.479.114.337-.056-.516-.169-.853-.317-1.104" stroke-width="1.462"/><path d="m515.222 745.17q-.493-.394-.206-7 .506-.144 1.433-.148.927-.005 1.842.759.915.763 1.354 1.78.439 1.016-1.523 2.741-1.963 1.725-2.066 1.868" stroke-width="1.462"/><path d="m526.852 735.086q-.681 0-.643 0-.811.026-.648.063-1.14.789-1.622 4.138-.482 3.35-.467 5.343.015 1.993.367 3.498.352 1.504 1.138 2.374.786.87 1.58.855.795-.015 1.168-.055" stroke-width="1.473"/><path d="m529.973 739.215q-.08-.146.132 3.319.211 3.465 1.727 7.097h.025q.039-.125.078-.251" stroke-width="1.391"/><path d="m530.228 742.211q-.062.168-.064-2.852.159-.619 3.71.04.066-.253.145 1.096.079 1.35-3.958 3.593-.572.181.958-.063 1.53-.244 2.739.066 1.209.311 1.684.618.476.307.793.757.318.45.26.722-.059.271-.24.575-.182.304-1.79.963-1.607.66-2.925.638-1.317-.021-1.401-.147" stroke-width="1.391"/><path d="m541.023 737.714q.16.313-.251-.433-.412-.747-.858-1.022-.446-.275-.975-.34-.529-.066-.891.444-.362.509-.535 1.387-.172.877.068 1.917.24 1.04 1.604 1.42 1.364.38 2.433-.455 1.069-.835 1.28-1.085" stroke-width="1.391"/><path d="m543.978 732.252q.026-.116-.373-.456-.486.737-.193 5.819.293 5.081.943 8.833.651 3.752 2.145 6.436h.044q.083-.188.142-.375" stroke-width="1.396"/><path d="m549.11 748.129q0 .125-.108.501.144.046-.333-.081-.948-.91 1.545-9.315.714.57.669.457-.044-.113.756 2.836.8 2.948.637 6.482.369.159-.537.026-.906-.133-1.176-.28" stroke-width="1.399"/><path d="m547.854 746.797q-.345-.218.179-.742.524-.523 2.955-.745 2.431-.221 2.745-.346" stroke-width="1.399"/><path d="m556.363 736.212q-.777.137-.584.081-.708.096-.692.188-.364.079-.633.778-.269.699-.34 2.031-.071 1.332 1.045 1.554 1.117.222 1.97-.183.853-.404 1.06-.614" stroke-width="1.43"/><path d="m559.445 733.172q0-.022 0-.169.178.044 1.023 1.495.844 1.452 1.316 3.128.471 1.676.573 2.49.102.814.186 2.496.084 1.681.024 2.67-.061.988-.924 2.64-.863 1.651-2.458 2.815-1.595 1.164-2.115 1.477" stroke-width="1.407"/><path d="m501.511 763.8q0 .063-.019.125-.269 0-.354 0-.26-.006.307.31.567.316.734.441" stroke-width="1.407"/><path d="m502.679 767.053q-.049.088-.085.029-.036-.059-.563.763.213.243.359.497.147.254.25.419" stroke-width="1.407"/><path d="m501.933 771.595q-.017-.023-.883.081.231.86.191.585.231.25.398.416" stroke-width="1.407"/></g></g></svg>